<svg width="1425" height="768" viewBox="0 0 1425 768" fill="none" xmlns="http://www.w3.org/2000/svg">
<g opacity="0.02">
<path d="M591.867 630.753C547.028 630.753 533.577 615.675 518.082 586.775C517.114 584.778 516.885 582.698 517.406 580.653C517.927 578.607 519.188 576.638 521.119 574.857C523.148 572.62 526.727 570.906 531.08 570.086C549.81 567.555 569.022 567.371 587.61 567.187C613.151 566.942 637.33 566.711 661.054 561.051C668.92 558.933 676.505 556.524 683.757 553.842C705.438 546.31 729.986 537.781 752.122 541.77C767.02 544.454 775.25 548.381 776.612 553.443C779.762 565.177 743.807 578.753 720.025 587.742C715.797 589.276 712.136 590.717 709.298 591.868C699.964 595.892 691.102 600.226 682.764 604.845C662.416 615.583 639.316 627.854 612.158 629.925C605.439 630.46 598.658 630.737 591.867 630.753ZM533.18 574.55C531.137 575.109 529.499 576.022 528.525 577.142C525.809 579.668 525.015 582.666 526.312 585.502C543.566 617.822 555.372 629.649 611.107 625.384C635.513 623.513 656.514 612.361 676.946 601.578C685.546 596.813 694.692 592.345 704.332 588.202C707.17 587.005 711.001 585.609 715.286 583.984C734.669 576.667 770.71 563.045 768.326 554.118C767.446 550.912 761.146 548.243 749.567 546.157C731.292 542.859 708.56 550.759 688.496 557.723C680.871 560.548 672.875 563.071 664.573 565.27C639.259 571.405 613.122 571.605 587.951 571.85C569.731 571.957 550.973 572.203 533.18 574.55Z" fill="#EADDFF"/>
<path d="M1346.46 329.703C1334.21 329.666 1322.3 327.552 1312.4 323.66C1275.51 309.594 1260.07 275.663 1257.09 259.679C1252.98 237.391 1268.84 219.536 1284.17 202.295C1292.45 192.969 1300.99 183.336 1306.47 172.997C1311.07 164.315 1311.52 153.209 1312.15 141.459C1313.31 114.309 1314.64 83.538 1369.64 73.6288C1381.85 71.4199 1386.67 72.7237 1391.47 74.6258C1392.06 74.8559 1392.66 75.1013 1393.31 75.3314C1393.59 75.4251 1393.86 75.5329 1394.1 75.6536L1399.44 78.5987C1399.63 78.6949 1399.8 78.803 1399.95 78.9208C1406.96 84.5504 1403.95 95.7021 1400.43 101.424C1385.62 125.43 1370.49 154.114 1370.49 184.793C1370.49 199.396 1382.78 210.701 1395.81 222.681C1416.78 241.993 1440.56 263.882 1411.47 303.212C1401.37 316.864 1384.43 325.654 1362.52 328.614C1357.27 329.333 1351.87 329.699 1346.46 329.703ZM1380.14 77.0648C1377.4 77.1524 1374.69 77.4626 1372.11 77.9851C1322.79 86.882 1321.6 114.677 1320.43 141.567C1319.92 153.623 1319.44 165.005 1314.53 174.27C1308.86 185.008 1300.14 194.794 1291.83 204.274C1276.33 221.73 1261.69 238.204 1265.58 259.219C1268.87 276.952 1285.44 307.738 1317.28 319.886C1323.41 322.296 1330.46 323.93 1337.91 324.668C1345.36 325.406 1353.03 325.229 1360.33 324.151C1384.54 320.883 1397.23 310.023 1403.44 301.494C1431 264.266 1409.32 244.309 1388.34 225.013C1375.32 213.033 1361.87 200.654 1361.87 184.793C1361.87 153.455 1377.22 124.325 1392.23 99.9664C1395.47 94.7357 1397.45 85.5628 1392.97 81.6666L1388.26 79.0742C1387.61 78.8441 1386.98 78.5987 1386.36 78.3533C1384.65 77.5281 1382.44 77.0698 1380.14 77.0648Z" fill="#EADDFF"/>
<path d="M578.926 425.697C577.151 425.7 575.377 425.634 573.62 425.498C560.338 424.47 550.917 419.638 545.695 411.125C540.473 402.611 549.725 394.451 558.692 386.582C564.368 381.642 569.618 376.964 570.952 372.608C582.757 334.259 541.552 309.256 448.441 298.074L444.581 297.614C430.789 295.972 416.543 294.285 404.255 290.45C403.373 290.171 402.562 289.831 401.843 289.438C400.218 288.591 399.097 287.502 398.623 286.31C398.148 285.117 398.342 283.875 399.18 282.743C400.017 281.61 401.461 280.638 403.325 279.951C405.189 279.263 407.391 278.892 409.647 278.884C430.534 278.593 448.498 277.765 464.361 277.044C516.834 274.666 554.719 272.948 634.861 292.199C687.929 304.946 705.808 327.617 690.994 363.557C686.446 374.753 678.073 385.391 666.304 394.926C654.811 403.869 612.044 425.697 578.926 425.697ZM511.357 280.173C496.458 280.173 481.644 280.848 465.099 281.599C449.122 282.336 431.045 283.133 409.874 283.455C409.279 283.435 408.688 283.517 408.184 283.689C407.68 283.861 407.288 284.114 407.065 284.413C406.842 284.711 406.799 285.04 406.942 285.353C407.084 285.666 407.405 285.947 407.859 286.155C408.057 286.26 408.276 286.353 408.512 286.431C419.665 289.913 433.258 291.524 446.398 293.089L450.285 293.549C548.618 305.36 592.179 332.204 579.352 373.313C577.734 378.559 571.746 383.821 565.957 388.929C557.614 396.246 549.753 403.164 553.754 409.637C557.954 416.447 564.85 420.129 574.84 420.911C603.048 423.105 647.404 401.538 659.295 392.257C670.387 383.193 678.312 373.107 682.679 362.499C696.613 328.614 680.806 308.198 631.399 296.34C577.649 283.455 544.247 280.173 511.357 280.173Z" fill="#EADDFF"/>
<path d="M453.719 17.5942C447.646 23.1317 441.346 28.8686 441.346 36.0014C441.346 41.6003 445.688 46.6162 449.86 51.4788C453.35 55.0457 455.919 58.8547 457.493 62.7992C460.757 73.5367 448.98 82.7403 438.707 88.6767C407.32 106.547 342.474 119.954 299.935 117.377C278.509 116.073 264.405 112.192 256.827 105.535C242.014 92.5422 254.841 70.9444 268.009 51.7242C269.995 48.8404 271.925 45.6805 273.968 42.3365C281.091 30.7247 289.151 17.5482 302.347 10.2467C303.766 9.4797 305.469 8.59002 307.398 7.59297C311.456 5.4608 316.366 2.89913 321.219 0.046018H309.612C306.774 1.57995 303.936 3.02185 301.637 4.27967C299.679 5.30741 297.92 6.22777 296.473 7.01007C281.716 15.0786 273.315 28.7919 265.909 40.8946C263.894 44.2079 261.992 47.3218 260.063 50.0982C246.185 70.3615 232.705 93.1864 249.733 107.943C258.672 115.781 275.274 120.49 299.168 121.948C303.042 122.179 306.936 122.292 310.832 122.285C355.046 122.285 414.84 109.032 445.064 91.8365C461.835 82.2955 469.1 72.0028 466.064 62.0629C464.369 57.699 461.571 53.482 457.749 49.5307C453.776 44.9289 450.001 40.5879 450.001 36.0014C450.001 30.1264 455.422 25.2639 461.183 19.9411C467.398 14.2656 474.265 7.96111 473.754 0H465.241C465.667 6.65727 459.735 11.9954 453.719 17.5942Z" fill="#EADDFF"/>
<path d="M145.072 17.855C155.175 21.8432 168.456 22.7482 184.518 20.5547C198.083 18.6986 213.238 10.3387 230.435 0.0460161H218.885C205.121 8.12984 192.408 14.7258 182.447 16.091C168.74 17.9624 158.183 17.3181 150.095 14.1429C142.603 11.167 137.722 6.18175 134.402 0.0460161H125.462C129.208 7.56229 135.168 13.9434 145.072 17.855Z" fill="#EADDFF"/>
<path d="M539.196 33.8999C536.585 43.2569 532.499 55.375 523.928 66.1125C509.078 84.2944 489.789 101.319 466.575 116.732C455.223 124.264 439.53 130.844 424.262 137.226C420.09 138.959 416.004 140.662 412.116 142.364C398.324 148.407 382.487 152.939 365.49 155.71C272.436 170.911 229.669 130.216 188.321 90.8548C156.679 60.7591 126.796 32.2586 76.1118 28.8993C50.5709 27.1813 25.2287 28.7919 0 31.8138V36.5383C25.0584 33.4704 50.2304 31.7831 75.0618 33.4704C121.518 36.5383 150.379 64.057 180.914 93.1251C215.962 126.488 255.011 163.686 327.831 163.686C341.463 163.612 355.001 162.46 368.015 160.265C386.064 157.337 402.878 152.527 417.508 146.107C421.367 144.435 425.426 142.748 429.541 141.014C445.206 134.48 461.382 127.731 473.272 119.785C496.984 104.013 516.683 86.5963 531.846 67.9992C540.814 56.7095 545.014 44.2079 547.681 34.5748C551.284 23.1571 551.514 11.5027 548.362 0.0460161H539.849C542.857 9.44902 542.97 20.5394 539.196 33.8999Z" fill="#EADDFF"/>
<path d="M1418.94 484.769C1408.34 484.333 1397.71 484.261 1387.1 484.554C1329.88 486.379 1278.52 501.427 1228.83 515.908C1192.96 526.384 1155.84 537.229 1117.27 542.782C1022.23 556.495 946.062 540.405 897.052 496.243C881.472 482.222 870.66 471.163 873.185 456.222C876.789 434.747 891.234 416.34 906.53 396.936C914.136 387.272 921.997 377.271 928.41 366.855C937.236 352.528 938.57 338.8 939.989 324.258C940.443 319.656 940.897 314.748 941.663 309.931C942.969 301.326 948.02 292.613 953.015 284.192C957.058 277.686 960.356 271.052 962.89 264.327C970.695 241.165 949.24 200.055 919.556 181.357C882.096 157.719 827.836 147.518 758.308 151.031C687.645 154.605 623.452 171.233 591.47 180.835C543.935 195.116 459.792 216.116 430.591 196.389C428.806 195.214 427.504 193.847 426.771 192.38C426.037 190.912 425.888 189.377 426.334 187.876C428.803 177.292 453.265 164.867 467.313 159.13C478.267 154.697 490.016 150.279 501.367 146.015C556.876 125.184 614.258 103.632 625.467 64.2411C632.477 39.5755 627.596 20.0332 613.435 0.107375H604.24C618.827 19.9411 624.105 39.192 617.039 63.5355C606.283 100.917 550.547 121.886 496.401 142.18C485.049 146.46 473.159 150.908 462.091 155.387C457.919 157.09 421.282 172.261 417.763 187.232C417.178 189.345 417.416 191.501 418.462 193.561C419.508 195.621 421.338 197.541 423.836 199.197C439.445 209.75 468.703 211.698 510.846 204.979C535.564 201.037 564.027 194.242 595.499 184.793C626.971 175.344 689.859 159.038 758.989 155.556C825.594 152.181 877.414 161.861 913.001 184.287C940.812 201.82 961.699 241.779 954.405 263.438C951.924 269.974 948.711 276.424 944.785 282.75C939.762 291.417 934.568 300.375 933.178 309.486C932.412 314.38 931.929 319.257 931.475 323.967C930.113 338.186 928.808 351.577 920.322 365.383C914.022 375.614 906.133 385.523 898.698 395.095C883.827 414.024 868.418 433.597 864.643 455.777C861.805 472.068 873.81 484.293 889.673 498.574C929.035 534.023 985.054 552.154 1053.9 552.154C1076.04 552.056 1098.06 550.39 1119.4 547.2C1158.96 541.509 1196.5 530.526 1232.91 519.927C1281.78 505.646 1332.24 490.874 1387.63 489.125C1398.04 488.835 1408.47 488.907 1418.85 489.34L1418.94 484.769Z" fill="#EADDFF"/>
<path d="M1418.94 408.563C1374.25 416.645 1330.95 426.818 1289.53 438.966C1274.83 443.435 1260.71 448.431 1247.25 453.921C1232.69 459.582 1217.65 465.441 1201.58 469.782C1150.67 483.588 1058.33 483.588 1015.59 463.064C957.47 435.131 974.412 400.786 990.787 367.561C997.03 354.921 1007.5 339.199 1018.63 322.54C1056.82 265.232 1104.39 193.904 1052.17 151.568C994.022 104.43 865.835 106.992 765.261 125.108C757.258 126.549 747.326 128.973 736.882 131.55C704.389 139.48 659.976 150.371 635.457 140.432C628.107 137.456 624.105 134.296 623.197 130.89C621.438 124.111 631.909 116.625 642.012 109.415C645.985 106.593 649.731 103.909 652.824 101.224C656.968 97.6502 661.338 94.0454 665.879 90.2259C694.967 65.9438 727.971 38.4404 721.927 8.92749C721.29 5.9285 720.237 2.95964 718.777 0.0460161H709.951C711.605 3.12732 712.782 6.27762 713.47 9.46436C719.146 37.2899 687.049 64.057 658.727 87.6949C654.13 91.5298 649.788 95.1498 645.616 98.7546C642.778 101.27 639.061 103.863 635.23 106.624C624.048 114.6 612.527 122.853 614.769 131.535C615.989 136.137 621.239 140.416 630.349 144.113C658.727 155.679 704.133 144.619 740.344 135.738C750.646 133.222 760.351 130.844 767.929 129.479C865.523 111.9 989.595 109.139 1045.08 154.13C1094.91 194.533 1048.17 264.649 1010.6 320.975C999.442 337.726 988.885 353.556 982.557 366.38C965.53 400.939 947.878 436.695 1009.94 466.5C1031.51 476.869 1065.62 483.051 1105.92 483.91C1109.04 483.91 1112.16 484.017 1115.28 484.017C1148.49 484.017 1181.58 480.32 1205.39 473.893C1222.07 469.383 1237.4 463.416 1252.21 457.649C1265.37 452.285 1279.18 447.396 1293.53 443.015C1333.71 431.25 1375.66 421.346 1418.94 413.41V408.563Z" fill="#EADDFF"/>
<path d="M1418.94 0.0460161H1418.26C1418.26 6.18175 1411.84 12.1641 1399.38 18.0544C1342.31 44.9902 1265.15 40.4498 1190.46 36.0474C1153.99 33.8999 1116.31 31.6757 1082.28 33.3477C1052.4 34.8816 1026.83 42.3059 1002.08 49.5307C977.335 56.7555 954.547 63.4435 927.332 65.0694C891.774 67.2169 853.547 65.5756 825.169 60.7131C786.432 54.0711 764.779 41.9837 760.806 24.773C758.876 16.4744 761.827 8.42129 765.517 0.0460161H756.776C753.229 8.25256 750.334 16.6738 752.349 25.3559C760.55 61.1119 835.868 70.6069 895.718 70.6069C906.592 70.6069 917.458 70.2894 928.269 69.6559C957.13 67.9225 982.046 60.6364 1006.14 53.5803C1031.23 46.2481 1054.92 39.3147 1083.05 37.9342C1116.22 36.3082 1151.84 38.3943 1189.52 40.6185C1266.15 45.1283 1345.21 49.8221 1405 21.5057C1410.33 19.0521 1415.02 16.2192 1418.94 13.0844L1418.94 0.0460161Z" fill="#EADDFF"/>
<path d="M1055.29 0.0460161C1050.3 0.935697 1045.16 1.85606 1039.88 2.83777C995.867 10.8756 945.977 20.0025 906.502 7.22482C900.634 5.42462 895.529 2.97902 891.518 0.0460161H881.359C886.237 4.7437 893.466 8.60328 902.217 11.1824C917.402 15.9816 934.747 18.4183 952.334 18.2231C982.302 18.2231 1013.66 12.4862 1042.61 7.19414C1051.72 5.52216 1060.34 3.94221 1068.63 2.59234C1075.7 1.48237 1082.91 0.631664 1090.2 0.0460161H1055.29Z" fill="#EADDFF"/>
<path d="M1418.94 110.489C1418.6 111.103 1418.2 111.732 1417.86 112.361C1407.13 132.67 1408.75 155.311 1418.94 177.752V110.489Z" fill="#EADDFF"/>
<path d="M1418.94 386.904L1414.57 387.533C1394.7 390.478 1376.82 396.107 1359.65 401.538C1351.14 404.191 1342.63 406.952 1333.77 409.315C1283.03 423.028 1164.38 439.518 1119.97 415.45C1018.51 360.674 1081.57 275.494 1127.6 213.263C1130.92 208.661 1135.15 204.258 1139.6 199.457C1148.4 190.085 1157.48 180.391 1159.87 170.113C1164.18 151.461 1136 140.968 1111.14 131.627C1082.39 120.889 1057.56 111.686 1075.44 92.2814C1080.18 87.1427 1087.67 82.3108 1094.94 77.617C1097.21 76.0831 1099.48 74.6872 1101.63 73.2299C1112.25 66.0511 1131.83 67.6618 1149.08 69.073C1152.09 69.3184 1154.99 69.5638 1157.77 69.7479C1195.54 72.3096 1284.02 81.4211 1290.1 110.965C1294.58 132.701 1275.68 148.638 1255.7 165.496C1247.54 172.147 1240.01 179.023 1233.17 186.097C1226.81 193.045 1220.6 199.457 1214.61 205.593C1174.68 246.411 1148.32 273.378 1204 326.037C1217.25 338.585 1245.77 360.643 1287.8 367.454C1322.42 373.068 1371.03 369.785 1418.97 359.784V354.722C1371.77 364.861 1323.36 368.435 1290.24 363.067C1251.05 356.716 1224 335.716 1211.37 323.767C1158.02 273.301 1182.14 248.604 1222.13 207.756C1228.17 201.62 1234.42 195.178 1240.83 188.26C1247.51 181.32 1254.86 174.577 1262.85 168.058C1282.72 151.184 1303.32 133.882 1298.53 110.535C1291.8 77.7397 1198.58 67.9532 1158.82 65.2688C1155.98 65.0848 1153.14 64.8393 1150.3 64.6092C1131.74 63.0753 1108.62 61.1732 1094.91 70.4382C1092.81 71.8647 1090.59 73.2913 1088.35 74.7485C1080.41 79.4866 1073.5 84.706 1067.78 90.3026C1046.58 113.204 1076.92 124.54 1106.23 135.492C1131.32 144.88 1155.04 153.731 1151.35 169.622C1149.17 179.102 1140.43 188.428 1131.94 197.448C1127.6 202.05 1123.12 206.882 1119.63 211.575C1072.72 274.973 1008.47 361.778 1113.95 418.764C1132.23 428.658 1161.12 432.37 1192.9 432.37C1244.61 432.37 1303.95 422.522 1337.63 413.441C1346.66 411.002 1355.48 408.21 1364 405.51C1380.68 400.218 1398.05 394.773 1416.86 391.981L1418.99 391.659L1418.94 386.904Z" fill="#EADDFF"/>
<path d="M1418.94 716.561C1407.98 717.865 1397.06 719.123 1386.3 720.35C1335.08 726.225 1286.72 731.778 1254.34 740.537C1230.05 747.091 1208.28 756.075 1190.18 767.012H1201.93C1218.17 757.88 1237.18 750.316 1258.14 744.648C1289.56 736.165 1337.41 730.674 1388.06 724.86C1398.25 723.694 1408.58 722.498 1418.94 721.271V716.561Z" fill="#EADDFF"/>
<path d="M874.548 750.599C864.757 724.154 815.747 716.561 772.384 709.873C739.919 704.842 709.242 700.102 701.239 688.306C694.598 678.566 703.282 664.162 727.801 644.282C739.014 634.94 754.707 627.417 773.207 622.516C797.499 615.951 819.01 606.226 838.932 592.773C845.176 588.57 849.574 583.232 853.831 578.078C863.962 565.806 873.696 554.087 907.155 554.087C912.184 554.104 917.203 554.329 922.167 554.762C947.708 556.879 960.989 563.444 975.094 570.393C996.52 580.962 1018.68 591.868 1083.13 586.085C1148.86 580.164 1219.35 563.168 1281.78 548.182L1292.79 545.528C1305.92 542.201 1318.67 538.462 1330.99 534.33C1351.4 527.78 1372.51 520.985 1396.26 518.439C1403.9 517.61 1411.53 516.997 1418.97 516.583V511.981C1410.85 512.426 1402.68 513.07 1394.47 513.959C1369.39 516.659 1347.65 523.654 1326.62 530.403C1314.59 534.445 1302.13 538.102 1289.3 541.356L1278.26 544.009C1216.48 558.888 1146.42 575.762 1081.74 581.575C1021.44 587.021 1001.71 577.311 980.854 567.018C966.438 559.916 951.539 552.584 923.501 550.237C871.114 545.865 857.804 562.002 846.084 576.237C842.554 581.091 837.931 585.692 832.32 589.935C813.165 602.851 792.59 612.177 769.433 618.436C749.667 623.714 732.88 631.76 720.82 641.736C694.314 663.211 685.574 678.55 693.321 689.902C702.828 703.876 735.52 708.938 770.114 714.291C813.023 720.933 857.407 727.805 866.176 751.504C868.061 756.623 869.321 761.804 869.95 767.012H878.464C877.824 761.501 876.516 756.018 874.548 750.599Z" fill="#EADDFF"/>
<path d="M1418.94 675.268C1410.05 677.308 1401.28 679.363 1392.66 681.404C1337.55 694.335 1285.5 706.545 1224.17 713.187C1191.4 716.73 1153.23 720.243 1146.87 719.905C1125.3 711.852 1095.79 684.103 1090.11 671.663C1077.88 645.233 1124.9 626.673 1162.7 611.763C1169.09 609.232 1175.13 606.854 1180.7 604.508C1201.67 595.703 1223.78 594.199 1247.19 592.604C1261.94 591.859 1276.51 590.317 1290.69 588.002C1308.36 584.534 1325.59 580.434 1342.26 575.731C1362.83 570.24 1384.09 564.564 1405.09 561.726C1409.6 561.113 1414.25 560.652 1418.96 560.269V555.667C1413.6 556.07 1408.28 556.623 1403.02 557.324C1381.14 560.284 1359.45 566.067 1338.48 571.666C1322.17 576.27 1305.3 580.282 1288 583.677C1274.34 585.905 1260.31 587.39 1246.11 588.11C1222.58 589.72 1198.29 591.377 1175.48 600.964C1170.03 603.25 1164.12 605.566 1157.68 608.128C1117.95 623.85 1068.23 643.408 1081.85 672.86C1088.1 686.389 1118.49 715.273 1142.7 724.001C1143.21 724.185 1144.03 724.476 1147.86 724.476C1155.38 724.476 1174.6 723.311 1225.85 717.773C1288.08 711.039 1340.53 698.737 1396.12 685.699L1419.02 680.361L1418.94 675.268Z" fill="#EADDFF"/>
<path d="M1418.94 642.442C1408.64 644.574 1398.45 646.783 1388.34 648.961C1346.15 658.165 1302.47 667.598 1256.16 669.868C1224.51 671.402 1205.47 669.408 1203.88 664.346C1200.51 653.609 1260.44 629.388 1295.8 624.602C1329.63 620 1365.53 614.816 1398.9 607.606C1403.92 606.517 1410.82 605.167 1418.94 603.679V598.878C1408.44 600.765 1400.21 602.36 1395.75 603.326C1362.83 610.444 1327.27 615.598 1293.73 620.2C1260.19 624.802 1190.74 650.035 1195.51 665.175C1198.09 673.442 1218.92 675.115 1236.52 675.115C1244.8 675.115 1252.35 674.746 1256.92 674.516C1304.49 672.185 1348.73 662.582 1391.52 653.302C1400.58 651.339 1409.71 649.36 1418.94 647.427V642.442Z" fill="#EADDFF"/>
<path d="M1322.93 767.012H1322.45C1317.95 766.437 1313.27 766.464 1308.8 767.089L1322.93 767.012Z" fill="#EADDFF"/>
<path d="M1418.94 753.729C1409.56 756.724 1402.2 761.26 1397.94 766.675C1397.86 766.785 1397.79 766.898 1397.74 767.012H1406.99C1409.85 764.001 1413.93 761.379 1418.94 759.343V753.729Z" fill="#EADDFF"/>
<path d="M1064.77 706.99C1042.61 698.016 1028.87 689.273 1017.35 676.802C1007.3 665.942 1001.97 654.36 996.803 643.163C990.219 628.836 983.38 614.018 966.665 600.458C959.684 594.798 948.73 591.53 934.086 590.733C907.552 589.322 878.123 596.516 873.214 599.169C864.076 604.109 855.562 608.143 848.042 611.702C825.793 622.255 809.731 629.879 800.848 649.084C793.867 664.147 827.865 674.93 863.849 686.343C894.668 696.129 926.537 706.284 931.135 718.678C933.661 725.059 930.823 739.402 927.985 755.937C927.332 759.511 926.651 763.224 925.998 767.012H934.512C935.136 763.377 935.789 759.818 936.413 756.382C939.62 738.757 942.089 724.829 939.563 717.773C934.2 703.308 900.656 692.678 868.219 682.37C835.044 671.863 803.743 661.923 809.163 650.157C817.393 632.348 831.866 625.492 853.718 615.122C861.323 611.518 869.95 607.453 879.258 602.375C882.437 600.657 905.509 595.12 927.162 595.12C929.233 595.12 931.277 595.12 933.292 595.273C945.239 595.918 954.122 598.51 959.627 602.943C975.519 615.828 981.848 629.603 988.573 644.19C993.852 655.634 999.272 667.46 1009.74 678.781C1021.92 691.942 1036.39 701.161 1059.66 710.594C1084.21 720.534 1079.87 745.783 1073.11 766.936H1081.63C1088.69 744.832 1092.72 718.325 1064.77 706.99Z" fill="#EADDFF"/>
<path d="M834.931 505.968C798.237 492.745 742.274 510.569 688.156 527.688C657.677 537.367 628.873 546.494 607.333 548.611C550.235 554.225 498.387 552.661 438.168 548.611C425.681 547.767 411.435 544.822 396.394 541.708C369.86 536.217 342.475 530.557 318.381 534.898C291.364 539.76 283.958 568.644 278.026 591.837C275.189 602.391 272.748 612.377 268.974 616.564C267.384 617.546 258.275 620.154 249.506 622.7C207.988 634.649 121.603 659.514 91.2659 703.676C80.9644 718.663 71.7697 737.285 92.2592 748.344C117.8 762.15 170.329 748.651 201.716 740.598C206.824 739.279 211.251 738.144 214.855 737.315C281.716 721.823 374.826 706.974 438.565 724.2C470.519 732.836 502.758 749.878 526.766 767.043H537.522C512.463 748.36 477.671 729.63 442.368 720.089C420.857 714.276 396.337 711.914 370.683 711.914C316.763 711.914 257.906 722.329 211.507 733.082C207.761 733.941 203.277 735.107 198.055 736.441C168.683 743.973 119.531 756.582 98.2755 745.093C81.2482 735.889 89.7618 719.016 99.2403 705.287C128.47 662.705 212.84 638.423 253.507 626.734C269.626 622.132 274.82 620.599 276.522 618.696C280.949 613.895 283.503 603.955 286.455 592.451C291.79 571.666 299.083 543.196 321.077 539.239C342.247 535.419 368.214 540.773 393.329 545.988C408.909 549.209 423.581 552.246 437.089 553.167C498.132 557.278 550.604 558.858 608.866 553.167C631.881 550.912 661.31 541.57 692.469 531.692C741.905 516 797.953 498.206 830.191 509.818C856.782 519.405 837.059 539.975 824.005 553.581C822.643 554.992 821.366 556.327 820.23 557.554C803.374 575.777 753.682 609.155 717.187 617.914L712.107 619.126C676.975 627.501 618.202 641.521 612.413 663.457C604.694 692.601 653.732 713.386 705.637 735.337C729.646 745.476 753.881 755.769 772.497 767.043H783.849C764.182 754.235 737.194 742.822 710.916 731.763C660.997 710.671 613.86 690.745 620.87 664.178C626.006 644.758 684.268 630.861 715.57 623.406L720.678 622.178C759.415 612.867 810.042 578.937 827.864 559.671L831.582 555.759C845.147 541.524 867.85 517.84 834.931 505.968Z" fill="#EADDFF"/>
<path d="M646.439 752.241C634.549 743.236 623.992 733.266 613.776 723.617C607.419 717.62 600.835 711.346 593.91 705.517C581.707 694.964 576.259 682.815 571.009 671.05C565.163 658.073 559.146 644.651 544.049 633.223C523.134 617.377 495.294 610.214 468.391 603.158C452.073 598.909 435.16 594.506 419.551 588.187C414.5 586.131 408.938 582.143 403.063 577.924C388.306 567.31 369.917 554.103 344.064 561.051C330.669 564.671 322.525 569.12 319.176 574.657C313.5 583.861 323.12 593.862 331.492 602.651C338.019 609.478 344.177 615.951 340.744 619.678C334.699 626.213 316.508 629.296 300.446 631.95C293.006 633.077 285.739 634.513 278.708 636.245C264.348 640.125 138.715 675.038 151.543 704.934C151.956 706.238 152.993 707.461 154.551 708.48C156.11 709.5 158.135 710.282 160.425 710.748C177.793 714.214 213.976 700.67 252.684 685.269C259.518 682.381 266.632 679.693 273.997 677.216C326.952 662.92 404.255 654.376 448.838 669.439C532.016 697.541 551.74 717.451 581.594 747.577C587.553 753.59 593.91 760.002 601.204 766.92H611.023C602.736 759.159 595.67 752.041 589.086 745.445C559.686 715.764 538.458 694.319 453.35 665.558C434.592 659.238 412.088 656.799 388.874 656.799C344.688 656.799 298.062 665.619 270.194 673.136C262.32 675.705 254.739 678.527 247.491 681.588C223.114 691.297 177.736 709.352 163.235 706.453C162.272 706.246 161.433 705.901 160.808 705.455C160.183 705.008 159.795 704.478 159.687 703.922C150.464 682.447 235.913 652.949 282.369 640.386C289.008 638.779 295.856 637.436 302.858 636.367C320.51 633.376 340.545 629.986 348.264 621.703C353.656 615.889 346.533 608.419 338.984 600.504C331.435 592.589 322.723 583.477 327.207 576.053C329.789 571.758 336.544 568.184 347.782 565.147C365.887 560.238 379.254 568.475 396.196 580.624C402.439 585.119 408.342 589.368 414.358 591.807C430.619 598.402 447.902 602.897 464.617 607.238C491.747 614.294 517.373 620.951 537.039 635.83C551.229 646.568 556.734 658.947 562.58 672.077C568.001 684.195 573.62 696.712 586.56 707.895C593.286 713.708 599.813 719.875 606.113 725.842C616.443 735.582 627.113 745.66 639.259 754.848C645.214 759.119 651.77 763.134 658.869 766.859L659.039 766.951H670.902C668.944 765.831 666.929 764.727 664.971 763.638C658.276 760.094 652.082 756.284 646.439 752.241Z" fill="#EADDFF"/>
<path d="M230.492 762.073C218.692 762.787 207.155 764.452 196.267 767.012H225.838C227.626 766.859 229.414 766.721 231.173 766.66C247.753 765.999 264.408 766.117 280.95 767.012H331.237C298.348 762.503 264.345 760.836 230.492 762.073Z" fill="#EADDFF"/>
<path d="M201.177 520.356C192.209 517.748 183.752 515.279 176.204 512.824C160.339 507.474 145.168 501.544 130.798 495.077C95.6647 479.968 62.4332 465.687 0 467.896V472.497C59.5953 470.319 90.1309 483.465 125.462 498.682C140.14 505.271 155.622 511.318 171.805 516.782C179.552 519.282 188.094 521.767 197.147 524.452C218.318 530.587 240.226 536.999 253.394 544.117C255.919 545.482 255.409 551.019 255.153 553.688C255.153 554.685 254.983 555.59 254.983 556.311C254.983 575.47 245.59 592.282 199.758 612.116C191.244 615.797 180.886 617.914 169.932 620.138C158.041 622.577 145.725 625.093 135.679 629.833C60.4467 665.374 -19.5529 717.62 18.6164 767.012H27.9247C-11.6637 719.614 67.286 668.258 141.44 633.253C150.294 629.05 161.305 626.796 173.082 624.403C184.178 622.132 195.785 619.801 205.207 615.659C240.283 600.489 263.638 584.597 263.638 556.265C263.638 555.606 263.638 554.731 263.809 553.872C264.234 549.271 264.745 543.626 259.552 540.819C245.363 533.226 222.915 526.691 201.177 520.356Z" fill="#EADDFF"/>
<path d="M0 643.423V648.593C1.8926 649.206 3.64522 649.937 5.22169 650.771C7.32171 651.921 8.05956 654.514 6.86765 658.057C5.43312 662.13 3.12847 666.099 0 669.884V680.453C7.32171 673.074 13.3948 665.037 15.2678 658.793C16.8286 653.593 15.4664 649.805 11.238 647.519C7.97791 645.8 4.171 644.412 0 643.423Z" fill="#EADDFF"/>
<path d="M93.962 540.113C88.2863 534.928 82.4402 529.56 70.9752 525.847C54.175 520.402 29.2301 517.319 0.0284064 516.981V521.583C25.7395 521.921 50.202 524.452 66.6333 529.774C76.2253 532.842 81.2767 537.444 86.6403 542.445C89.6259 545.333 92.9928 548.101 96.7148 550.728C118.056 565.147 125.661 576.805 119.418 585.395C107.442 601.501 49.152 606.226 0.227058 609.738V614.34C51.6777 610.643 113.515 605.735 127.392 587.067C135.111 576.682 127.392 563.843 103.582 547.798C100.04 545.364 96.8247 542.796 93.962 540.113Z" fill="#EADDFF"/>
<path d="M735.009 220.227C729.106 219.046 723.658 217.711 718.323 216.423C705.439 213.278 693.264 210.287 676.833 209.52C634.69 207.449 583.183 211.775 528.781 216.346C434.337 224.292 336.657 232.483 266.107 210.701C214.515 194.763 189.201 166.785 164.71 139.741C140.872 113.434 118.396 88.5846 73.8982 74.135C53.2101 67.4163 27.1868 64.9314 0.113515 65.3302V69.932C23.526 69.6099 48.9817 71.4659 69.6698 78.0925C112.068 91.8979 134.033 116.103 157.275 141.781C182.333 169.392 208.357 198.061 262.106 214.705C335.266 237.299 438.877 228.51 530.313 220.84C584.233 216.238 635.315 212.02 676.294 214.045C691.306 214.781 702.856 217.588 715.059 220.549C720.479 221.868 726.098 223.233 732.228 224.476C791.086 236.41 823.92 247.899 842.054 262.916C862.146 279.559 865.665 301.679 853.405 334.658C846.992 351.946 834.335 365.582 820.94 380.017C811.753 389.466 803.595 399.198 796.506 409.161C792.099 416.142 788.376 423.244 785.353 430.437C778.599 445.255 771.618 460.563 753.285 471.853C699.848 504.879 620.132 523.685 522.765 526.262C439.842 528.44 346.817 518.362 267.583 498.651C238.381 491.441 210.57 481.701 183.752 472.221C147.569 459.49 110.365 446.328 68.109 438.751C48.2438 435.161 25.2003 434.026 0 435.315V439.917C24.4057 438.628 46.5127 439.686 65.4981 443.107C106.619 450.516 143.483 463.508 179.013 476.071C206.172 485.612 234.125 495.506 263.922 502.931C338.075 521.265 418.551 530.935 500.09 531.308C507.847 531.308 515.519 531.206 523.105 531.002C622.828 528.378 704.729 509.02 759.614 475.028C779.308 462.88 786.545 447.003 793.526 431.664C796.474 424.631 800.112 417.688 804.424 410.864C811.395 401.047 819.421 391.459 828.46 382.149C841.515 368.067 855.051 353.526 861.664 335.625C874.349 301.372 870.433 278.194 849.035 260.462C829.851 244.555 795.796 232.529 735.009 220.227Z" fill="#EADDFF"/>
<path d="M606.482 251.611C569.788 246.656 532.981 249.801 497.366 252.838C486.724 253.743 475.741 254.679 465.014 255.384C456.018 255.967 446.965 256.581 437.884 257.194C364.809 262.149 289.264 267.272 217.665 258.483C159.999 251.442 91.493 224.982 76.6226 192.969C72.7063 184.501 73.2171 174.562 73.7847 163.824C74.9482 141.245 76.282 115.643 27.3571 105.719C18.5736 104.034 9.31992 103.178 0 103.188V107.789C8.31852 107.783 16.5761 108.556 24.4057 110.075C67.6265 118.849 66.4914 140.646 65.2995 163.763C64.7603 174.209 64.2211 184.992 68.4211 194.089C77.7294 214.198 104.661 229.369 125.633 238.573C152.337 250.322 185.228 259.204 215.792 262.962C288.839 271.936 365.149 266.766 438.934 261.766C448.015 261.137 457.068 260.538 466.007 259.956C476.905 259.25 487.972 258.299 498.699 257.379C533.463 254.418 569.419 251.35 604.41 256.075C640.536 260.953 677.826 273.654 704.162 290.051C733.079 308.029 746.219 328.4 741.054 347.497C733.136 377.516 701.806 403.762 647.915 425.482C551.427 464.337 409.534 477.329 319.005 470.089C278.112 466.852 239.942 456.422 202.993 446.42C189.116 442.632 174.614 438.751 160.425 435.238C138.148 429.823 118.283 419.899 97.2255 409.437C68.109 394.758 37.914 379.786 0 377.087V381.781C35.0194 384.603 63.6535 398.869 91.5498 412.674C112.153 422.951 133.494 433.581 157.02 439.303C171.209 442.724 185.398 446.62 199.162 450.393C236.707 460.64 275.501 471.24 317.87 474.629C410.129 482.008 554.889 468.77 653.137 429.164C708.106 406.998 741.451 378.973 749.624 348.126C754.988 327.725 741.111 306.02 710.604 287.014C683.161 270.018 644.197 256.765 606.482 251.611Z" fill="#EADDFF"/>
<path d="M397.898 304.47C379.878 300.574 361.006 296.801 342.815 293.165C306.49 285.879 268.747 278.347 235.544 269.405C224.987 266.552 211.138 266.843 197.743 267.134C190.179 267.45 182.577 267.373 175.04 266.904C155.515 265.14 131.592 257.961 112.919 251.918C79.9997 241.18 40.0424 215.441 32.9477 192.386C31.3869 187.37 30.5639 182.016 29.6558 176.356C27.0733 159.575 24.1219 140.815 0 130.154V136.566C16.4313 146.368 18.8719 161.753 21.2273 176.77C22.1354 182.523 23.0152 187.953 24.6044 193.153C32.1247 217.512 74.0401 244.678 108.605 255.875C127.903 262.134 152.734 269.573 173.706 271.46C181.833 271.985 190.035 272.083 198.197 271.752C210.513 271.491 223.256 271.215 231.854 273.531C265.341 282.581 303.227 290.159 339.864 297.491C358.026 301.126 376.756 304.884 394.748 308.765C429.711 316.328 489.76 343.079 479.884 367.254C473.073 383.851 446.795 395.402 425.965 402.151C400.495 410.193 372.499 415.627 343.383 418.181C267.072 424.531 146.718 389.757 58.8575 364.386C40.8654 359.186 23.8949 354.292 9.50688 350.396C6.30008 349.522 3.12166 348.678 0 347.85V352.989L5.67575 354.523C19.8651 358.388 36.8924 363.281 54.7993 368.451C136.36 392.012 245.533 423.549 324.114 423.549C330.981 423.564 337.841 423.293 344.631 422.737C395.032 418.549 474.805 400.587 488.086 368.251C499.239 341.177 436.295 312.769 397.898 304.47Z" fill="#EADDFF"/>
<path d="M210.173 291.493L204.497 290.68L186.846 288.134C136.615 280.924 67.8252 271.061 33.6004 255.246C21.0003 249.295 8.91092 239.033 0 228.418V238.711C8.1447 246.672 17.8786 253.897 28.3787 258.652C63.994 275.142 133.863 285.173 184.887 292.49C191.102 293.38 197.005 294.224 202.482 295.037L208.158 295.85C238.183 300.175 264.121 303.918 257.452 323.737C254.614 331.759 245.618 338.784 231.031 344.061C209.038 352.022 175.494 355.474 149.442 352.452C108.208 347.773 68.109 330.01 29.4855 312.815C19.5529 308.413 9.62039 304.056 0 299.945V305.805C7.94604 309.225 15.9772 312.784 24.0935 316.374C63.5684 333.906 104.405 352.038 147.484 357.023C154.743 357.85 162.145 358.257 169.563 358.235C192.92 358.283 215.815 354.717 235.544 347.957C252.088 341.975 262.475 333.906 265.597 324.626C273.741 300.697 239.971 295.773 210.173 291.493Z" fill="#EADDFF"/>
</g>
</svg>
