<svg width="227" height="200" viewBox="0 0 227 200" fill="none" xmlns="http://www.w3.org/2000/svg">
<g opacity="0.05">
<path d="M39.2418 154.382C39.7559 148.051 40.841 137.654 45.5965 132.533C46.5377 133.354 47.7716 133.216 48.6542 133.849C51.0196 135.546 53.2264 137.573 55.511 139.37C56.8839 140.45 58.097 142.144 57.302 143.729C56.0263 146.274 55.7984 148.005 55.58 150.693C55.3616 153.38 56.2528 156.207 56.3949 158.912C56.5189 161.28 56.1883 163.565 56.162 165.931C56.1361 168.236 56.586 170.488 55.4878 172.54C54.775 173.872 52.7643 175.369 51.3383 176.172C48.2075 177.934 45.2434 180.122 42.4506 182.28C40.5348 183.76 39.4948 185.232 36.8003 185.703C35.4992 185.931 25.0298 188.376 27.521 186.106C28.6784 185.052 29.2203 183.664 29.2618 182.198C29.3275 179.879 29.188 177.993 30.3553 175.83C32.2434 172.332 35.8821 169.285 38.4563 166.132C41.5924 162.289 38.8934 158.673 39.2418 154.382Z" fill="white"/>
<path d="M196.492 153.601C199.849 150.199 205.555 144.672 211.775 143C212.155 143.692 213.216 143.922 213.634 144.495C214.756 146.03 215.597 147.71 216.608 149.28C217.215 150.224 217.408 151.471 216.03 152.157C213.817 153.258 212.828 154.166 211.403 155.611C209.979 157.055 209.385 158.853 208.243 160.396C207.244 161.748 205.915 162.94 204.794 164.252C203.703 165.531 203.02 166.899 201.18 167.77C199.985 168.334 197.666 168.669 196.141 168.762C192.793 168.965 189.382 169.447 186.124 169.955C183.889 170.304 182.365 170.865 179.969 170.457C178.812 170.26 169.219 169.018 172.286 168.372C173.711 168.072 174.793 167.434 175.508 166.626C176.638 165.35 177.402 164.263 179.35 163.348C182.5 161.868 186.855 161.074 190.399 159.957C194.717 158.595 194.217 155.906 196.492 153.601Z" fill="white"/>
<path d="M100.802 86.9944C100.216 85.2144 98.8036 82.6504 98.8036 80.766C99.244 80.766 100.043 81.3292 100.36 81.6544C101.101 82.4152 101.501 83.4104 102.224 84.1812C102.72 84.7108 102.881 85.4268 103.242 86.0368C103.718 86.84 104.518 87.6508 105.24 88.2284C106.184 88.9828 107.375 89.4056 108.353 90.1432C109.517 91.0216 110.405 92.1916 111.254 93.3808C112.381 94.9604 113.189 96.6132 114.482 98.0796C116.08 99.8932 117.368 101.966 118.978 103.765C120.397 105.352 121.964 106.909 123.934 107.733C125.359 108.329 126.415 108.935 127.643 109.866C131.432 112.738 136.186 114.249 140.688 115.551C144.883 116.765 148.918 118.358 153.138 119.5C154.826 119.956 156.435 120.366 158.153 120.644C159.548 120.871 160.928 121.331 162.187 121.987C164.416 123.148 165.123 125.743 167.106 127.14C168.916 128.414 171.577 128.336 173.639 128.916C175.666 129.488 177.672 129.972 179.768 130.2C183.252 130.579 186.795 130.23 190.277 130.555C194.005 130.903 197.577 132.376 201.325 132.746C203.697 132.981 206.18 132.49 208.529 132.865C209.342 132.994 208.595 133.246 208.357 133.447C207.854 133.87 207.483 134.424 207.223 135.027C207.07 135.379 205.474 135.733 205.081 136.014C204.247 136.61 202.765 136.734 201.766 136.734C200.333 136.734 199.066 137.445 197.626 137.445H192.861C190.858 137.445 188.889 137.686 186.895 137.79C183.9 137.948 180.827 137.786 177.856 138.244C175.736 138.571 173.591 138.638 171.468 138.955C169.642 139.228 167.866 139.755 166.011 139.755C164.315 139.755 161.673 140.226 160.958 138.126C160.656 137.239 160.906 136.221 160.516 135.392C159.791 133.85 158.263 132.442 157.048 131.305C155.763 130.103 154.415 129.022 152.869 128.196C151.224 127.317 149.661 127.317 147.861 127.317H147.778C144.2 127.317 140.65 125.564 137.201 124.741C133.139 123.772 128.89 122.87 124.962 121.424C122.733 120.604 120.419 119.342 118.41 118.048C116.473 116.801 114.761 115.536 113.771 113.38C112.722 111.096 112.148 108.717 110.572 106.717C109.349 105.164 108.121 103.613 106.95 102.018C105.525 100.078 104.741 97.8408 103.895 95.592C102.822 92.7412 101.755 89.8924 100.802 86.9944Z" fill="white"/>
<path fill-rule="evenodd" clip-rule="evenodd" d="M74.4832 126.154C72.3989 125.495 70.3146 124.836 68.2157 124.206C66.89 123.808 65.8259 123.179 64.7848 122.564C63.8301 121.999 62.8944 121.446 61.7943 121.093C61.0993 120.871 60.5876 120.396 60.0841 119.929C59.9652 119.818 59.8462 119.708 59.7255 119.602C59.5534 119.45 59.2438 119.158 59.0004 118.902C59.0004 118.719 58.9891 118.55 58.7721 118.454C58.5083 118.338 58.7053 118.593 59.0004 118.902V118.963C59.0004 121.052 59.0781 123.35 59.2556 125.461C59.5443 128.894 61.2727 131.825 63.0102 134.772C63.6335 135.828 64.2573 136.886 64.8171 137.971C65.2066 138.726 65.5657 139.526 65.9289 140.336C66.8574 142.403 67.8157 144.538 69.3975 146.185C71.0609 147.917 73.8335 148.834 76.2588 149.636C76.5289 149.726 76.795 149.814 77.0546 149.901C80.8864 151.193 84.0444 153.126 87.3391 155.143C87.7636 155.403 88.1899 155.664 88.6208 155.925C89.7244 156.595 90.8848 157.212 92.0475 157.829C94.3711 159.063 96.7042 160.302 98.6151 161.985C101.215 164.276 103.169 167.697 104.566 170.66C106.133 173.985 108.025 177.587 111.632 179.514C114.204 180.887 116.975 181.618 119.76 182.352C121.696 182.863 123.638 183.375 125.522 184.106C126.513 184.49 127.498 184.902 128.485 185.316C131.159 186.435 133.849 187.561 136.726 188.154C139.36 188.696 142.312 188.592 145.152 188.491C146.251 188.452 147.332 188.414 148.372 188.414H182.291C183.395 188.414 184.557 188.458 185.743 188.504C188.75 188.62 191.908 188.741 194.65 188.154C197.193 187.609 199.851 186.594 202.227 185.644C202.423 185.566 204.907 184.447 204.282 184.378C203.008 184.238 201.701 184.265 200.393 184.293C199.279 184.316 198.164 184.34 197.068 184.26C191.336 183.839 185.65 183.379 179.927 182.875C173.354 182.296 167.781 176.351 164.855 171.631C162.347 167.585 159.887 163.416 157.668 159.239C157.432 158.794 157.199 158.348 156.966 157.901C156.109 156.258 155.254 154.618 154.216 153.049C153.027 151.253 151.454 149.884 149.82 148.462C149.576 148.249 149.331 148.035 149.084 147.818C145.096 144.304 140.059 142.053 134.845 140.196C129.809 138.402 124.495 137.723 119.176 137.043C115.277 136.544 111.375 136.045 107.575 135.107C104.512 134.35 101.48 133.456 98.4526 132.563C96.904 132.107 95.3563 131.65 93.8059 131.213C91.6203 130.596 89.3944 130.107 87.1689 129.619C84.5634 129.047 81.9583 128.475 79.4191 127.698C77.7688 127.192 76.1258 126.673 74.4832 126.154ZM88.529 139.012C89.9296 140.107 92.6986 141.641 94.4374 142.113C95.8253 142.49 97.1995 142.903 98.5738 143.316C100.223 143.812 101.873 144.307 103.545 144.741C108.743 146.089 114.069 147.126 119.377 148.159C120.89 148.453 122.402 148.748 123.91 149.049C125.226 149.312 126.671 149.498 128.158 149.69C132.831 150.291 137.919 150.946 140.729 154.209C142.213 155.933 143.468 157.688 144.571 159.63C144.764 159.97 145.037 160.358 145.324 160.768C146.006 161.738 146.774 162.83 146.774 163.701C146.774 164.892 143.412 164.398 142.717 164.198C141.648 163.892 140.626 163.46 139.601 163.028C138.632 162.619 137.661 162.21 136.645 161.902C133.939 161.084 131.457 160.107 128.881 159.038C126.688 158.129 124.181 157.684 121.717 157.245C120.545 157.037 119.383 156.83 118.268 156.576C116.908 156.266 115.567 155.9 114.227 155.533C112.494 155.058 110.761 154.584 108.986 154.233C104.4 153.326 99.6902 152.166 95.9955 149.475C92.596 146.998 88.8927 143.166 88.529 139.012Z" fill="white"/>
<path d="M9.01486 64.512C11.3874 61.4736 10.3795 55.6772 13.3939 53.2892C16.4082 50.9016 16.2978 57.1236 17.4333 56.7612L17.4371 56.76C18.9226 56.2856 20.0363 55.9304 21.6036 56.798C23.9101 58.0756 26.1348 59.734 28.5978 60.4632C30.4969 61.0256 36.7778 62.4244 36.408 65.6096C36.0595 68.6116 35.8666 71.8476 35.1408 74.7212C34.4936 77.2832 32.9051 86.724 28.428 84.5256C26.6232 83.6392 25.2133 81.4156 24.0375 79.7516C22.6582 77.7996 20.2204 76.134 18.1829 74.996C14.0749 72.7016 11.5215 71.5532 9.14566 67.1352C8.50025 65.9352 8.22849 65.5192 9.01486 64.512Z" fill="white"/>
<path d="M204.236 80.5856C199.068 79.8268 194.744 77.414 189.825 75.9296C184.718 74.3884 179.602 73.6808 174.276 73.3292C171.39 73.1392 168.957 72.916 166.118 73.4836C164.554 73.796 163.184 74.2956 161.704 74.764C161.09 74.9588 160.457 74.9096 159.868 75.064C158.405 75.4472 158.194 78.1308 157.829 79.0704C156.555 82.3616 153.571 85.1332 151.557 88.1232C149.566 91.0776 148.052 93.96 146.864 97.1952C146.184 99.0464 143.252 99.9036 142.072 101.564C141.579 102.258 142.334 100.248 142.374 100.091C142.69 98.8488 142.547 97.4732 142.368 96.1976C142.047 93.92 141.99 91.526 141.227 89.2856C139.939 85.5012 137.547 82.1984 135.532 78.6532C134.566 76.954 133.034 75.4456 132.069 73.7452C131.196 72.2072 129.76 70.8728 129.182 69.256C128.871 68.3864 128.26 67.5812 128.592 66.6764C128.872 65.9152 130.019 66.456 130.751 66.6644C132.798 67.248 134.495 68.0256 136.179 69.1728C136.978 69.7168 137.588 70.3644 138.352 70.9392C139.151 71.54 140.122 71.9188 140.948 72.4832C141.866 73.1108 142.946 73.8544 143.629 74.6492C144.074 75.1664 144.677 76.7756 145.428 77.0244C147.222 77.6184 148.3 75.8788 148.742 74.7932C149.124 73.8552 149.85 73.0532 150.666 72.3328C151.676 71.4408 152.311 70.3048 153.329 69.406C154.884 68.0324 156.94 67.4984 158.728 66.4364C161.048 65.0592 164.346 64.7124 167.26 64.6444C168.117 64.624 169.992 64.648 170.239 63.8072C170.526 62.83 167.561 62.314 166.778 62.1148C164.782 61.6076 162.182 62.1144 160.144 62.0664C158.2 62.0208 156.299 62.2632 154.359 62.2792C150.861 62.3088 147.278 61.7756 143.777 61.8308C143.153 61.8404 139.125 61.9 139.505 61.044C139.828 60.3156 141.567 59.4604 142.337 59.0284C143.696 58.2656 145.024 57.25 146.045 56.204C147.002 55.2232 148.781 54.264 150.154 53.6604C151.491 53.072 152.72 52.496 154.294 52.302C158.828 51.742 163.23 53.5164 167.521 54.74C172.725 56.2236 177.925 57.9592 183.393 58.2456C186.588 58.4128 189.731 58.2084 192.928 58.6308C195.169 58.9272 197.248 58.9056 199.477 58.91C202.995 58.9172 205.355 57.128 208.458 56.344C209.891 55.9816 211.28 55.3752 212.821 55.2352C214.55 55.078 212.976 57.318 212.667 57.848C210.755 61.1372 207.416 63.288 204.592 65.9756C202.824 67.6592 202.999 69.7416 204.596 71.6616C206.697 74.1892 208.3 76.8368 210.591 79.2816C211.263 79.9988 211.928 80.8484 212.559 81.6072C212.866 81.9764 213.457 82.9012 213.391 83.354C213.245 84.368 212.813 84.0616 211.562 83.7048C210.535 83.412 210.02 83.01 209.17 82.5328C208.091 81.9276 204.88 80.834 204.236 80.5856Z" fill="white"/>
<path d="M108.871 12.7085C106.832 12.7304 104.967 12.7549 102.977 13.1806C103.914 13.6391 105.637 14.7617 106.41 15.4187C107.526 16.3668 109.287 16.9958 110.657 17.6218C111.659 18.0791 112.63 18.6367 113.594 19.1518C114.589 19.6828 115.676 19.8385 116.77 20.1397C121.938 21.5628 126.784 18.9859 131.991 19.5976C135.003 19.9514 137.527 21.1545 140.406 21.8008C143.094 22.404 145.844 22.9272 148.463 23.7416C151.146 24.5757 153.517 25.4552 156.412 25.4552C158.37 25.4552 160.344 25.2978 162.276 25.2978C165.084 25.2978 167.556 23.7168 170.244 23.1821C171.164 22.9992 172.31 23.0747 173.211 23.322C174.163 23.5833 174.116 24.1845 174.342 24.8957C174.796 26.3243 176.019 27.6009 176.912 28.8298C177.815 30.0727 177.846 31.5514 178.53 32.8427C179.235 34.1743 179.834 35.5654 180.713 36.8206C181.227 37.5544 181.891 38.2276 182.182 39.0674C182.317 39.4612 182.29 40.0824 182.816 39.6182C183.686 38.8523 184.462 38.0316 185.317 37.2577C185.964 36.6719 187.282 35.9076 187.282 35.0546C187.282 33.8798 187.147 32.7896 186.964 31.6275C186.659 29.6861 186.125 27.9842 185.099 26.242C184.308 24.8997 182.774 23.8438 182.182 22.4302C181.622 21.0975 182.372 19.1144 182.856 17.8666C183.608 15.9318 185.152 14.5083 186.924 13.2505C187.212 13.0466 190.246 10.6627 188.968 10.6627C187.681 10.6627 186.344 10.8482 185.079 11.0648C181.75 11.6351 178.388 11.9448 175.057 12.4899C170.258 13.275 165.351 13.9418 160.49 14.3608C157.989 14.5764 155.461 14.7564 152.968 14.3696C150.29 13.9539 147.587 13.4983 144.921 13.0232C142.823 12.6494 140.764 12.3201 138.64 12.079C136.94 11.8861 135.245 11.9641 133.54 11.843C128.533 11.4872 123.531 11.087 118.516 11.537C115.291 11.8264 112.119 12.6736 108.871 12.7085Z" fill="white"/>
<path d="M190.671 89.2592C192.991 88.9904 195.306 89.1068 197.617 88.7184L209.193 86.6552C209.203 87.2208 208.46 88.096 208.005 88.4736C207.019 89.2928 206.863 90.9276 206.286 91.9852C205.605 93.234 205.053 94.454 204.138 95.5644C202.925 97.0372 200.435 98.008 198.748 98.98C196.225 100.434 193.568 101.693 191.064 103.17C188.263 104.821 185.397 106.707 182.246 107.8C176.31 109.861 171.026 109.22 164.846 108.529C161.433 108.148 158.334 107.972 154.895 108.211C153.303 108.321 154.664 107.449 155.242 106.717C158.154 103.029 160.869 99.0236 165.211 96.522C168.516 94.6168 171.819 93.5456 175.538 92.396C178.587 91.4532 181.831 90.4184 185.045 90.0524C186.93 89.838 188.789 89.4772 190.671 89.2592Z" fill="white"/>
<path d="M46.5578 27.9904C37.6055 27.4086 34.1265 17.0492 34.1265 17.0492C34.1265 17.0492 46.8851 18.4037 48.2798 19.2512C50.6433 20.6872 53.1022 21.2402 55.8943 21.7497C59.6893 22.4424 63.3803 23.5923 67.2248 24.0657C71.3802 24.5775 75.5634 25.1308 79.643 26.0166C81.6116 26.4442 83.546 27.248 85.5736 27.4086C87.9871 27.5997 90.8432 27.3627 93.2526 27.1462C95.9861 26.9004 98.7959 26.9984 101.527 27.2032C103.804 27.374 106.142 27.3834 108.429 27.4656C110.727 27.5482 112.972 27.898 115.279 27.8649C118.344 27.821 121.332 27.2488 124.434 27.2488C126.441 27.2488 127.367 28.0486 129.134 28.6407C133.271 30.0267 137.146 31.9433 141.307 33.4097C143.627 34.2272 145.692 35.133 147.859 36.1934C150.136 37.3082 153.157 37.7378 155.68 38.0189C160.091 38.5102 164.297 39.1955 168.603 40.1864C169.678 40.434 172.38 40.448 171.686 41.8752C170.705 43.8912 168.149 43.3252 166.014 43.5636C160.885 44.1364 155.138 44.6992 150.034 43.5752C144.682 42.396 138.972 43.014 133.55 42.3316C131.581 42.0836 129.59 41.9412 127.633 41.624C124.875 41.1772 122.299 40.374 119.578 39.7987C117.564 39.3728 115.485 39.1186 113.453 38.7605C112.346 38.5653 111.112 38.2561 109.97 38.384C108.515 38.5468 109.207 39.0801 109.801 39.6846C110.846 40.746 112.237 41.9 112.948 43.1528C113.951 44.9196 114.4 47.0724 114.994 48.9716C115.746 51.3764 116.624 53.6408 117.027 56.1248C117.421 58.556 117.774 60.9256 118.361 63.324C119.759 69.0436 121.283 74.6572 123.152 80.2776C124.244 83.5596 125.34 86.8812 125.522 90.3176C125.55 90.8572 125.741 91.0756 125.366 90.7968C124.856 90.4164 124.196 90.2108 123.67 89.8384C121.874 88.5664 120.291 87.084 118.529 85.7768C116.742 84.4508 114.889 83.2848 113.181 81.8636C104.646 74.7612 104.867 63.7024 103.275 54.1624C103.016 52.6104 103.142 51.0356 102.874 49.4736C102.547 47.5732 102.018 45.7572 101.177 43.9856C100.25 42.0312 99.0833 40.188 97.0466 38.9544C94.8729 37.6379 92.651 37.7396 90.1059 37.7222C85.7933 37.6928 82.0115 36.5192 77.9855 35.2579C73.1658 33.748 68.2481 32.4984 63.3526 31.1963C57.8465 29.7317 52.3186 28.3648 46.5578 27.9904Z" fill="white"/>
<path d="M-0.000244141 47.2268V19.5778C0.699732 18.2662 1.21835 16.8593 1.74889 15.42C2.50389 13.3717 3.28303 11.2579 4.64335 9.26036L9.64725 4.65004C10.0974 5.30648 9.97368 9.84144 9.84615 14.5148C9.70686 19.62 9.56303 24.8905 10.158 25.45C10.7707 26.0262 12.8895 22.5582 15.2471 18.6996C17.275 15.3804 19.4795 11.7722 21.054 10.2L28.4883 5.50004C27.2624 8.88416 26.9291 12.3011 26.5932 15.745C26.2599 19.1624 25.924 22.6062 24.7109 26.071C23.6896 28.0706 22.4676 29.9292 21.2407 31.7951C20.4166 33.0486 19.5903 34.3054 18.8211 35.6105C18.3797 36.3595 17.9775 37.1209 17.5788 37.8755C16.2942 40.3072 15.0471 42.668 12.6492 44.3108C10.6091 45.7092 6.64781 46.5364 4.04379 46.7656C2.7001 46.884 1.3505 47.0404 -0.000244141 47.2268Z" fill="white"/>
<path d="M-0.000244141 139.446V70.5124C0.188564 70.65 0.366383 70.7892 0.52837 70.932C0.863467 71.2272 1.19935 71.5148 1.53259 71.8004C2.764 72.8556 3.95947 73.8796 4.94681 75.1364C6.1727 76.6964 6.66061 78.9448 7.10585 80.9964C7.26475 81.7288 7.4182 82.436 7.59785 83.0776C8.07922 84.798 8.48115 86.5328 8.88294 88.2672C9.33372 90.2128 9.7844 92.158 10.3471 94.0816C10.548 94.7684 10.7581 95.4604 10.9696 96.1568C12.011 99.586 13.0836 103.118 13.2338 106.625C13.5682 114.433 10.2498 120.278 6.39634 127.065C6.3257 127.19 6.25492 127.314 6.18396 127.439C4.00682 131.276 2.28825 134.839 1.03894 138.997C0.726069 140.038 0.382248 139.928 -0.000244141 139.446Z" fill="white"/>
<path d="M-0.000244141 198.606V165.729C0.527362 165.052 1.04444 164.369 1.55026 163.681C3.22321 161.406 4.7115 158.942 5.82221 156.41C6.85951 154.046 7.697 151.831 8.50934 149.682C10.3132 144.912 11.9931 140.468 15.4618 135.448C17.0645 133.128 18.8333 130.68 20.8576 128.639C21.9282 127.559 22.9199 126.437 23.9105 125.316C25.2709 123.776 26.6291 122.239 28.1868 120.818L40.4707 109.614C40.75 109.36 41.0379 109.058 41.3359 108.747C42.0123 108.04 42.7406 107.278 43.5386 106.88C43.7454 106.777 43.9635 106.673 44.1868 106.567C45.0744 106.144 46.0428 105.684 46.7052 105.08C47.0435 104.771 47.3381 104.898 47.5828 105.27C47.7503 105.526 47.142 106.215 46.791 106.612C46.7002 106.715 46.6262 106.798 46.5881 106.85C45.297 108.576 44.3166 110.435 43.3321 112.302C42.8707 113.178 42.4084 114.054 41.9128 114.92C40.3591 117.634 38.0674 119.854 35.7715 122.078C34.6426 123.172 33.5127 124.266 32.469 125.421C28.2524 130.086 25.8689 135.681 24.0781 141.39C23.6529 142.746 23.1064 144.074 22.5602 145.402C21.8983 147.011 21.237 148.619 20.7921 150.273C20.2471 152.299 19.8352 154.356 19.4234 156.412C19.134 157.857 18.8447 159.302 18.5093 160.735C18.0454 162.718 17.4768 164.678 16.9084 166.639C16.2814 168.801 15.6544 170.963 15.168 173.154C14.9877 173.967 14.8548 174.792 14.7217 175.619C14.5068 176.954 14.2916 178.291 13.8761 179.578C13.2531 181.509 12.1632 183.296 11.004 185.013L8.0617 188.688C7.37489 189.952 6.27199 191.036 5.1921 192.098C4.85682 192.427 4.52373 192.754 4.20601 193.084C3.39253 193.929 2.74488 194.891 2.09815 195.851C1.45248 196.81 0.807712 197.768 -0.000244141 198.606Z" fill="white"/>
<path d="M75.5429 200H64.6069C64.6187 199.866 64.6296 199.732 64.6401 199.6C64.7695 197.98 64.9869 196.359 65.2049 194.737C65.539 192.248 65.8731 189.756 65.8886 187.267C65.9063 184.469 66.0093 181.606 66.4815 178.833C66.7307 177.37 67.3827 175.999 68.0319 174.634C68.3515 173.962 68.6707 173.291 68.9408 172.611C69.3285 171.635 69.8697 171.74 70.8576 172.333C73.1022 173.682 75.1965 175.149 77.3076 176.629C77.817 176.986 78.3268 177.343 78.8403 177.7C81.0395 179.228 83.3985 180.493 85.776 181.769C86.1665 181.978 86.5583 182.188 86.9492 182.4C87.874 182.9 88.8106 183.381 89.7472 183.862C90.6343 184.318 91.521 184.773 92.3972 185.244C93.1436 185.646 93.8377 186.11 94.5319 186.575C95.2551 187.059 95.9788 187.543 96.7606 187.956C99.9363 189.629 103.11 191.191 106.509 192.489C108.639 193.302 110.666 194.238 112.701 195.178C113.737 195.656 114.774 196.136 115.829 196.6C117.805 197.471 119.798 198.141 121.958 198.511C122.111 198.538 122.274 198.564 122.442 198.592C123.613 198.786 125.078 199.028 126.031 199.5C126.281 199.624 126.459 199.799 126.594 200H96.6412C95.8149 199.542 94.9945 199.05 94.1628 198.511C92.2265 197.256 90.0491 196.198 87.9203 195.211C87.2842 194.916 86.6114 194.665 85.9381 194.414C84.9716 194.054 84.0036 193.693 83.1406 193.2C81.9783 192.536 80.8365 191.917 79.5213 191.511C78.5783 191.22 78.0639 191.486 77.7434 192.333C77.3162 193.462 77.0533 194.676 76.7927 195.88C76.6475 196.551 76.5026 197.219 76.3306 197.867C76.1367 198.598 75.8552 199.303 75.5429 200Z" fill="white"/>
<path d="M225.509 200H202.566C202.915 197.755 203.555 195.389 204.366 193.368C204.438 193.187 204.511 193.005 204.584 192.823C205.561 190.375 206.56 187.873 208.211 185.703C209.811 183.6 211.654 181.827 213.646 180.009C218.492 175.59 223.042 170.809 227 165.729V198.606C226.886 198.724 226.768 198.84 226.648 198.953C226.274 199.302 225.894 199.652 225.509 200Z" fill="white"/>
<path d="M227 70.5124V139.446C226.849 139.256 226.693 139.009 226.53 138.751C226.341 138.453 226.144 138.142 225.938 137.89C225.359 137.184 224.77 136.48 224.18 135.774C220.456 131.324 216.673 126.804 215.156 121.384C213.818 116.602 213.743 112.214 213.743 107.3C213.743 107.114 213.742 106.927 213.742 106.74C213.74 102.874 213.738 98.7872 214.646 95.016C214.929 93.8412 215.152 92.6564 215.374 91.4724C215.591 90.3204 215.808 89.1684 216.079 88.026C216.374 86.7904 216.776 85.5904 217.179 84.3912C217.707 82.818 218.234 81.2464 218.514 79.6L220.812 65.0148C221.674 65.268 222.652 66.5516 223.012 67.264C223.512 68.256 224.683 69.0024 225.81 69.7208C226.225 69.9848 226.633 70.2452 227 70.5124Z" fill="white"/>
<path d="M227 47.2268C222.604 47.8332 218.195 48.756 213.938 49.7176C213.04 49.9208 212.208 50.1532 211.409 50.3764C208.814 51.1016 206.556 51.7324 203.429 50.9608C203.163 50.8952 202.635 50.7824 201.935 50.6332C197.433 49.6724 185.777 47.1848 190.309 45.8024C192.742 45.0604 194.59 43.48 195.811 41.4832C196.065 41.0668 196.309 40.6588 196.548 40.2584C198.12 37.6235 199.483 35.339 202.371 33.3732C205.874 30.988 210.25 29.3239 214.548 27.6894C216.85 26.8143 219.128 25.9477 221.239 24.9834C224.216 23.6235 225.852 21.7287 227 19.5772V47.2268Z" fill="white"/>
<path d="M225.51 0C222.525 2.69324 219.165 5.29044 215.353 6.95312C214.804 7.19284 214.274 7.4528 213.747 7.71156C212.767 8.19284 211.795 8.66984 210.72 9.004C210.465 9.08328 210.19 9.16468 209.904 9.24932C208.672 9.61408 207.235 10.0397 206.284 10.6197C205.576 11.0512 204.853 11.469 204.123 11.8706C204.072 11.8989 203.926 11.9964 203.737 12.1235C203.156 12.5151 202.157 13.1879 202.183 12.9846C202.353 11.6544 202.488 10.465 202.267 9.10148C201.929 7.01356 202.099 4.89636 202.268 2.80214C202.29 2.53069 202.311 2.25962 202.332 1.98906C202.381 1.34558 202.46 0.678284 202.566 0H225.51Z" fill="white"/>
<path d="M126.593 0H96.6384C98.5634 1.06796 100.519 1.95583 102.713 2.84594C104.949 3.75304 107.26 4.41756 109.574 5.08304C111.131 5.53068 112.689 5.9788 114.227 6.50148C117.161 7.4986 119.733 8.07572 122.916 7.7126C123.569 7.63812 130.975 6.54868 130.76 5.95704C130.593 5.49548 130.063 5.06396 129.545 4.64216C129.162 4.32972 128.784 4.0226 128.566 3.71261C127.898 2.76462 127.287 1.70343 126.901 0.645944C126.819 0.419416 126.726 0.196806 126.593 0Z" fill="white"/>
<path d="M75.5438 0H64.607C64.5248 0.947548 64.4163 1.95142 64.3041 2.98656C63.8928 6.78288 63.4361 10.9998 64.0726 14.4015C64.7445 14.4015 65.1173 13.3686 65.4028 12.5772C65.4959 12.3189 65.5799 12.0863 65.6616 11.9237C66.1437 10.9682 67.316 10.0989 68.3198 9.3544C68.5908 9.15332 68.8496 8.96136 69.0793 8.77928C69.393 8.53052 69.7213 8.28344 70.0527 8.03364C71.6344 6.84192 73.297 5.58908 73.8844 3.8015C74.1877 2.87842 74.6077 1.99358 75.0267 1.11046C75.202 0.740896 75.3772 0.371635 75.5438 0Z" fill="white"/>
<path d="M37.6121 51.1168C39.7003 54.2544 41.7904 57.3948 43.0375 60.8804C43.9926 63.55 44.5558 66.5224 45.0048 69.2916C45.4432 71.9952 46.4833 74.5216 47.8299 76.9804C48.1817 77.6236 48.5086 78.3104 48.84 79.0076C49.689 80.7916 50.5698 82.6436 51.9912 84.0028C53.3015 85.2552 54.7261 86.4288 56.1503 87.6028C57.3021 88.552 58.4539 89.5008 59.5453 90.4916C60.6517 91.496 61.7327 92.53 62.8141 93.5648C66.4997 97.0912 70.1966 100.628 74.9686 103.047C76.6634 103.906 78.498 104.404 80.3394 104.904C81.0477 105.096 81.7568 105.289 82.4596 105.503C84.3619 106.081 86.1429 107.021 87.8195 107.992C88.2776 108.257 88.7866 108.457 89.296 108.658C89.8893 108.891 90.4827 109.125 90.9957 109.461L91.0352 109.492C91.5128 109.86 91.8756 110.147 92 110.246C91.9115 110.175 91.6944 110 91.3126 109.692C91.2114 109.61 91.1056 109.533 90.9957 109.461C90.5336 109.106 90.0682 108.756 89.6047 108.409C87.4713 106.81 85.3725 105.236 83.7712 103.136C81.8136 100.569 80.442 97.1052 80.442 93.9916C80.442 91.4244 82.1477 89.0132 83.6491 86.8912L83.6959 86.8248C85.4252 84.3796 86.9837 81.7448 88.1097 79.036C90.0582 74.3476 91.7053 69.1348 92.1702 64.136C92.2992 62.7536 92.2715 61.3488 92.2438 59.9516C92.2324 59.3668 92.2206 58.7828 92.2206 58.2028C92.2206 56.724 92.0404 54.8712 90.8464 53.714C88.1619 51.1124 83.9551 50.0336 80.22 49.076C79.9209 48.9992 79.6244 48.9232 79.3325 48.8472C79.2721 48.8316 79.2117 48.8156 79.1513 48.8C80.0044 49.4576 80.6436 50.2084 80.6436 51.1C80.6436 52.5212 79.6176 53.5916 78.597 54.6564C78.0222 55.256 77.4493 55.8536 77.0625 56.5112C76.4251 57.594 75.7481 58.6564 75.0712 59.7184C74.4016 60.7696 73.7319 61.8204 73.1022 62.8888C72.6927 63.584 72.1066 64.1708 71.5196 64.7588C71.0615 65.2176 70.603 65.6772 70.227 66.1888C69.2873 67.4684 69.29 68.6952 69.2936 70.1412C69.2936 70.2268 69.2936 70.3128 69.2936 70.4C69.2936 71.4948 69.2369 72.5836 69.1801 73.6712C69.1234 74.7576 69.0666 75.8432 69.0666 76.9332V82.3668C69.0666 82.4568 69.0675 82.5412 69.0684 82.618C69.0739 83.2588 69.0757 83.422 68.6004 82.6888C68.3198 82.2568 68.0261 81.8248 67.7305 81.3904C66.6518 79.8044 65.5486 78.1832 64.9933 76.3888C64.4998 74.7944 64.5239 73.1576 64.548 71.5216C64.5711 69.968 64.5943 68.4152 64.1739 66.9C63.0902 62.9948 60.4374 59.716 57.821 56.4824C57.1133 55.6072 56.4077 54.7356 55.7367 53.8556C55.0085 52.9004 54.2848 51.9324 53.5589 50.9616C51.7542 48.5476 49.9364 46.1164 48.0065 43.8224C47.3132 42.9984 46.5927 42.2168 45.8282 41.4892C44.6936 41.0168 43.3642 40.7868 42.0962 40.5676C41.7609 40.5096 41.4299 40.4524 41.108 40.3916C35.2559 38.5272 32.4166 36.5196 31.2197 35.6734C30.6833 35.2942 30.4768 35.1482 30.4768 35.3528C30.7193 38.6288 32.2579 42.0508 33.8187 44.9916C34.9337 47.0924 36.2725 49.104 37.6121 51.1168Z" fill="white"/>
</g>
</svg>
