<svg width="227" height="200" viewBox="0 0 227 200" fill="none" xmlns="http://www.w3.org/2000/svg">
<g opacity="0.05">
<path d="M187.758 154.382C187.244 148.051 186.159 137.654 181.403 132.533C180.462 133.354 179.228 133.216 178.346 133.849C175.98 135.546 173.773 137.573 171.489 139.37C170.116 140.45 168.903 142.144 169.698 143.729C170.974 146.274 171.202 148.005 171.42 150.693C171.638 153.38 170.747 156.207 170.605 158.912C170.481 161.28 170.812 163.565 170.838 165.931C170.864 168.236 170.414 170.488 171.512 172.54C172.225 173.872 174.236 175.369 175.662 176.172C178.792 177.934 181.757 180.122 184.549 182.28C186.465 183.76 187.505 185.232 190.2 185.703C191.501 185.931 201.97 188.376 199.479 186.106C198.322 185.052 197.78 183.664 197.738 182.198C197.672 179.879 197.812 177.993 196.645 175.83C194.757 172.332 191.118 169.285 188.544 166.132C185.408 162.289 188.107 158.673 187.758 154.382Z" fill="white"/>
<path d="M126.198 86.9944C126.784 85.2144 128.196 82.6504 128.196 80.766C127.756 80.766 126.957 81.3292 126.64 81.6544C125.899 82.4152 125.499 83.4104 124.776 84.1812C124.28 84.7108 124.12 85.4268 123.758 86.0368C123.282 86.84 122.482 87.6508 121.76 88.2284C120.816 88.9828 119.625 89.4056 118.647 90.1432C117.483 91.0216 116.595 92.1916 115.746 93.3808C114.619 94.9604 113.811 96.6132 112.518 98.0796C110.92 99.8932 109.632 101.966 108.022 103.765C106.603 105.352 105.036 106.909 103.066 107.733C101.642 108.329 100.586 108.935 99.3574 109.866C95.5684 112.738 90.8136 114.249 86.3118 115.551C82.1173 116.765 78.0821 118.358 73.8617 119.5C72.1737 119.956 70.5652 120.366 68.8473 120.644C67.4517 120.871 66.0715 121.331 64.8126 121.987C62.5844 123.148 61.8775 125.743 59.8939 127.14C58.0838 128.414 55.423 128.336 53.3614 128.916C51.3342 129.488 49.328 129.972 47.2323 130.2C43.7484 130.579 40.2049 130.23 36.7232 130.555C32.9954 130.903 29.4228 132.376 25.6755 132.746C23.3029 132.981 20.8195 132.49 18.4705 132.865C17.6583 132.994 18.4047 133.246 18.6435 133.447C19.1456 133.87 19.5166 134.424 19.7772 135.027C19.9297 135.379 21.5264 135.733 21.9191 136.014C22.7531 136.61 24.2354 136.734 25.2338 136.734C26.6675 136.734 27.9342 137.445 29.3738 137.445H34.139C36.1425 137.445 38.1106 137.686 40.1045 137.79C43.1005 137.948 46.1727 137.786 49.1441 138.244C51.2643 138.571 53.409 138.638 55.5324 138.955C57.3584 139.228 59.134 139.755 60.989 139.755C62.6851 139.755 65.327 140.226 66.042 138.126C66.3444 137.239 66.0942 136.221 66.4838 135.392C67.2088 133.85 68.7374 132.442 69.9519 131.305C71.2371 130.103 72.5855 129.022 74.1309 128.196C75.7758 127.317 77.3389 127.317 79.1386 127.317H79.2221C82.8005 127.317 86.3504 125.564 89.7989 124.741C93.8613 123.772 98.1103 122.87 102.038 121.424C104.267 120.604 106.581 119.342 108.59 118.048C110.527 116.801 112.239 115.536 113.229 113.38C114.278 111.096 114.852 108.717 116.428 106.717C117.651 105.164 118.879 103.613 120.05 102.018C121.475 100.078 122.259 97.8408 123.105 95.592C124.178 92.7412 125.245 89.8924 126.198 86.9944Z" fill="white"/>
<path fill-rule="evenodd" clip-rule="evenodd" d="M152.517 126.154C154.601 125.495 156.685 124.836 158.784 124.206C160.11 123.808 161.174 123.179 162.215 122.564C163.17 121.999 164.106 121.446 165.206 121.093C165.901 120.871 166.412 120.396 166.916 119.929C167.035 119.818 167.154 119.708 167.274 119.602C167.447 119.45 167.756 119.158 168 118.902C168 118.719 168.011 118.55 168.228 118.454C168.492 118.338 168.295 118.593 168 118.902V118.963C168 121.052 167.922 123.35 167.744 125.461C167.456 128.894 165.727 131.825 163.99 134.772C163.366 135.828 162.743 136.886 162.183 137.971C161.793 138.726 161.434 139.526 161.071 140.336C160.143 142.403 159.184 144.538 157.602 146.185C155.939 147.917 153.166 148.834 150.741 149.636C150.471 149.726 150.205 149.814 149.945 149.901C146.114 151.193 142.956 153.126 139.661 155.143C139.236 155.403 138.81 155.664 138.379 155.925C137.276 156.595 136.115 157.212 134.952 157.829C132.629 159.063 130.296 160.302 128.385 161.985C125.785 164.276 123.831 167.697 122.434 170.66C120.867 173.985 118.975 177.587 115.368 179.514C112.796 180.887 110.025 181.618 107.24 182.352C105.304 182.863 103.362 183.375 101.478 184.106C100.487 184.49 99.5018 184.902 98.5148 185.316C95.8408 186.435 93.1513 187.561 90.2743 188.154C87.6402 188.696 84.6878 188.592 81.848 188.491C80.7494 188.452 79.6679 188.414 78.6278 188.414H44.7086C43.6049 188.414 42.4427 188.458 41.2573 188.504C38.25 188.62 35.0919 188.741 32.3498 188.154C29.8074 187.609 27.1492 186.594 24.7734 185.644C24.5773 185.566 22.0926 184.447 22.7182 184.378C23.9921 184.238 25.2992 184.265 26.6067 184.293C27.7212 184.316 28.8363 184.34 29.9318 184.26C35.664 183.839 41.3503 183.379 47.073 182.875C53.646 182.296 59.2189 176.351 62.1449 171.631C64.6532 167.585 67.113 163.416 69.3317 159.239C69.5682 158.794 69.8011 158.348 70.0336 157.901C70.8907 156.258 71.7461 154.618 72.7844 153.049C73.9734 151.253 75.5456 149.884 77.1795 148.462C77.4238 148.249 77.6694 148.035 77.9159 147.818C81.9039 144.304 86.941 142.053 92.1552 140.196C97.1914 138.402 102.505 137.723 107.824 137.043C111.723 136.544 115.625 136.045 119.425 135.107C122.488 134.35 125.52 133.456 128.547 132.563C130.096 132.107 131.644 131.65 133.194 131.213C135.38 130.596 137.606 130.107 139.831 129.619C142.437 129.047 145.042 128.475 147.581 127.698C149.231 127.192 150.874 126.673 152.517 126.154ZM138.471 139.012C137.07 140.107 134.301 141.641 132.563 142.113C131.175 142.49 129.8 142.903 128.426 143.316C126.777 143.812 125.127 144.307 123.455 144.741C118.257 146.089 112.931 147.126 107.623 148.159C106.11 148.453 104.598 148.748 103.09 149.049C101.774 149.312 100.329 149.498 98.8417 149.69C94.1691 150.291 89.0812 150.946 86.2713 154.209C84.7868 155.933 83.5315 157.688 82.4291 159.63C82.2362 159.97 81.9633 160.358 81.6755 160.768C80.9936 161.738 80.2263 162.83 80.2263 163.701C80.2263 164.892 83.5878 164.398 84.2833 164.198C85.352 163.892 86.374 163.46 87.3986 163.028C88.3675 162.619 89.3386 162.21 90.3551 161.902C93.0614 161.084 95.5425 160.107 98.1194 159.038C100.312 158.129 102.819 157.684 105.283 157.245C106.455 157.037 107.617 156.83 108.732 156.576C110.092 156.266 111.432 155.9 112.773 155.533C114.506 155.058 116.239 154.584 118.014 154.233C122.6 153.326 127.31 152.166 131.004 149.475C134.404 146.998 138.107 143.166 138.471 139.012Z" fill="white"/>
<path d="M217.985 64.512C215.613 61.4736 216.62 55.6772 213.606 53.2892C210.592 50.9016 210.702 57.1236 209.567 56.7612L209.563 56.76C208.077 56.2856 206.964 55.9304 205.396 56.798C203.09 58.0756 200.865 59.734 198.402 60.4632C196.503 61.0256 190.222 62.4244 190.592 65.6096C190.941 68.6116 191.133 71.8476 191.859 74.7212C192.506 77.2832 194.095 86.724 198.572 84.5256C200.377 83.6392 201.787 81.4156 202.962 79.7516C204.342 77.7996 206.78 76.134 208.817 74.996C212.925 72.7016 215.478 71.5532 217.854 67.1352C218.5 65.9352 218.771 65.5192 217.985 64.512Z" fill="white"/>
<path d="M22.7641 80.5855C27.932 79.8267 32.2559 77.4139 37.1754 75.9295C42.2825 74.3883 47.3982 73.6807 52.7245 73.3291C55.6106 73.1391 58.0435 72.9159 60.8824 73.4835C62.446 73.7959 63.8166 74.2955 65.2957 74.7639C65.9105 74.9587 66.5429 74.9095 67.1322 75.0639C68.595 75.4471 68.8065 78.1307 69.1706 79.0703C70.4455 82.3615 73.4291 85.1331 75.4435 88.1231C77.4339 91.0775 78.948 93.9599 80.1361 97.1951C80.8157 99.0463 83.7481 99.9035 84.9281 101.564C85.4216 102.258 84.6666 100.248 84.6266 100.091C84.3097 98.8487 84.4532 97.4731 84.6325 96.1975C84.953 93.9199 85.0102 91.5259 85.773 89.2855C87.061 85.5011 89.4531 82.1983 91.4679 78.6531C92.4341 76.9539 93.9663 75.4455 94.9315 73.7451C95.8045 72.2071 97.2406 70.8727 97.8185 69.2559C98.1295 68.3863 98.7406 67.5811 98.4082 66.6763C98.1286 65.9151 96.9813 66.4559 96.2495 66.6643C94.2024 67.2479 92.5049 68.0255 90.821 69.1727C90.0224 69.7167 89.4118 70.3643 88.6477 70.9391C87.8496 71.5399 86.8784 71.9187 86.0522 72.4831C85.1337 73.1107 84.0541 73.8543 83.3708 74.6491C82.9264 75.1663 82.3235 76.7755 81.5721 77.0243C79.7784 77.6183 78.7001 75.8787 78.2579 74.7931C77.8761 73.8551 77.1497 73.0531 76.3338 72.3327C75.3237 71.4407 74.6895 70.3047 73.6716 69.4059C72.1162 68.0323 70.0605 67.4983 68.2722 66.4363C65.9522 65.0591 62.6544 64.7123 59.7397 64.6443C58.883 64.6239 57.0084 64.6479 56.7614 63.8071C56.4741 62.8299 59.4391 62.3139 60.2218 62.1147C62.2176 61.6075 64.8186 62.1143 66.8561 62.0663C68.8002 62.0207 70.7015 62.2631 72.6415 62.2791C76.1395 62.3087 79.7221 61.7755 83.2233 61.8307C83.8466 61.8403 87.875 61.8999 87.495 61.0439C87.1722 60.3155 85.4329 59.4603 84.6634 59.0283C83.3046 58.2655 81.9757 57.2499 80.9551 56.2039C79.9985 55.2231 78.2189 54.2639 76.846 53.6603C75.5089 53.0719 74.2804 52.4959 72.7064 52.3019C68.1718 51.7419 63.7699 53.5163 59.4786 54.7399C54.2749 56.2235 49.0748 57.9591 43.6068 58.2455C40.4125 58.4127 37.269 58.2083 34.0723 58.6307C31.831 58.9271 29.7516 58.9055 27.5229 58.9099C24.0049 58.9171 21.645 57.1279 18.5424 56.3439C17.1086 55.9815 15.7198 55.3751 14.1794 55.2351C12.4501 55.0779 14.0246 57.3179 14.3329 57.8479C16.2447 61.1371 19.5843 63.2879 22.4077 65.9755C24.176 67.6591 24.0008 69.7415 22.4045 71.6615C20.3034 74.1891 18.7004 76.8367 16.4095 79.2815C15.7371 79.9987 15.072 80.8483 14.4414 81.6071C14.1345 81.9763 13.5434 82.9011 13.6087 83.3539C13.7554 84.3679 14.1867 84.0615 15.4384 83.7047C16.4653 83.4119 16.9797 83.0099 17.83 82.5327C18.9088 81.9275 22.1203 80.8339 22.7641 80.5855Z" fill="white"/>
<path d="M118.129 12.7085C120.168 12.7304 122.033 12.7549 124.023 13.1806C123.086 13.6391 121.363 14.7617 120.59 15.4187C119.474 16.3668 117.713 16.9958 116.342 17.6218C115.341 18.0791 114.37 18.6367 113.406 19.1518C112.411 19.6828 111.324 19.8385 110.23 20.1397C105.062 21.5628 100.216 18.9859 95.0086 19.5976C91.9972 19.9514 89.4734 21.1545 86.5937 21.8008C83.906 22.404 81.1557 22.9272 78.5366 23.7416C75.8543 24.5757 73.4831 25.4552 70.5884 25.4552C68.6303 25.4552 66.6558 25.2978 64.7241 25.2978C61.9156 25.2978 59.4436 23.7168 56.7559 23.1821C55.8361 22.9992 54.6902 23.0747 53.789 23.322C52.837 23.5833 52.8837 24.1845 52.6576 24.8957C52.2036 26.3243 50.9806 27.6009 50.0876 28.8298C49.185 30.0727 49.1541 31.5514 48.4704 32.8427C47.7649 34.1743 47.1661 35.5654 46.2871 36.8206C45.7732 37.5544 45.1085 38.2276 44.8184 39.0674C44.6827 39.4612 44.7104 40.0824 44.1837 39.6182C43.3143 38.8523 42.538 38.0316 41.6831 37.2577C41.0357 36.6719 39.7182 35.9076 39.7182 35.0546C39.7182 33.8798 39.853 32.7896 40.036 31.6275C40.3411 29.6861 40.8745 27.9842 41.9015 26.242C42.6924 24.8997 44.2255 23.8438 44.8184 22.4302C45.3778 21.0975 44.6282 19.1144 44.1438 17.8666C43.3924 15.9318 41.8479 14.5083 40.0755 13.2505C39.7881 13.0466 36.754 10.6627 38.0316 10.6627C39.3187 10.6627 40.6562 10.8482 41.921 11.0648C45.2497 11.6351 48.612 11.9448 51.943 12.4899C56.7418 13.275 61.6487 13.9418 66.5101 14.3608C69.0107 14.5764 71.5391 14.7564 74.0315 14.3696C76.7097 13.9539 79.4128 13.4983 82.0791 13.0232C84.1766 12.6494 86.2355 12.3201 88.3602 12.079C90.06 11.8861 91.7552 11.9641 93.4604 11.843C98.4667 11.4872 103.469 11.087 108.484 11.537C111.709 11.8264 114.881 12.6736 118.129 12.7085Z" fill="white"/>
<path d="M36.3291 89.2592C34.0087 88.9904 31.6942 89.1068 29.3829 88.7184L17.8072 86.6552C17.7973 87.2208 18.54 88.096 18.9949 88.4736C19.9814 89.2928 20.1372 90.9276 20.7142 91.9852C21.3948 93.234 21.9473 94.454 22.8621 95.5644C24.0747 97.0372 26.5649 98.008 28.2515 98.98C30.7748 100.434 33.4317 101.693 35.9359 103.17C38.7371 104.821 41.6027 106.707 44.7535 107.8C50.6905 109.861 55.9737 109.22 62.1544 108.529C65.5671 108.148 68.6657 107.972 72.1047 108.211C73.6969 108.321 72.3363 107.449 71.7583 106.717C68.8459 103.029 66.131 99.0236 61.7894 96.522C58.4838 94.6168 55.1805 93.5456 51.4623 92.396C48.4132 91.4532 45.1694 90.4184 41.9546 90.0524C40.0696 89.838 38.2114 89.4772 36.3291 89.2592Z" fill="white"/>
<path d="M180.442 27.9904C189.395 27.4086 192.874 17.0492 192.874 17.0492C192.874 17.0492 180.115 18.4037 178.72 19.2512C176.357 20.6872 173.898 21.2402 171.106 21.7497C167.311 22.4424 163.62 23.5923 159.775 24.0657C155.62 24.5775 151.437 25.1308 147.357 26.0166C145.389 26.4442 143.454 27.248 141.426 27.4086C139.013 27.5997 136.157 27.3627 133.747 27.1462C131.014 26.9004 128.204 26.9984 125.473 27.2032C123.196 27.374 120.858 27.3834 118.571 27.4656C116.273 27.5482 114.028 27.898 111.721 27.8649C108.656 27.821 105.668 27.2488 102.566 27.2488C100.559 27.2488 99.6326 28.0486 97.8656 28.6407C93.7287 30.0267 89.8543 31.9433 85.6934 33.4097C83.3735 34.2272 81.3078 35.133 79.1408 36.1934C76.8636 37.3082 73.8427 37.7378 71.3198 38.0189C66.9092 38.5102 62.7029 39.1955 58.3967 40.1864C57.3216 40.434 54.6203 40.448 55.3145 41.8752C56.2951 43.8912 58.8507 43.3252 60.9863 43.5636C66.1151 44.1364 71.8619 44.6992 76.9657 43.5752C82.3179 42.396 88.0283 43.014 93.45 42.3316C95.4195 42.0836 97.4098 41.9412 99.3674 41.624C102.125 41.1772 104.701 40.374 107.422 39.7987C109.436 39.3728 111.515 39.1186 113.547 38.7605C114.655 38.5653 115.888 38.2561 117.03 38.384C118.485 38.5468 117.793 39.0801 117.199 39.6846C116.155 40.746 114.763 41.9 114.052 43.1528C113.049 44.9196 112.6 47.0724 112.006 48.9716C111.254 51.3764 110.376 53.6408 109.973 56.1248C109.579 58.556 109.226 60.9256 108.639 63.324C107.241 69.0436 105.717 74.6572 103.848 80.2776C102.757 83.5596 101.66 86.8812 101.479 90.3176C101.45 90.8572 101.259 91.0756 101.634 90.7968C102.144 90.4164 102.804 90.2108 103.33 89.8384C105.126 88.5664 106.709 87.084 108.471 85.7768C110.258 84.4508 112.111 83.2848 113.819 81.8636C122.354 74.7612 122.133 63.7024 123.725 54.1624C123.984 52.6104 123.858 51.0356 124.126 49.4736C124.453 47.5732 124.982 45.7572 125.823 43.9856C126.75 42.0312 127.917 40.188 129.953 38.9544C132.127 37.6379 134.349 37.7396 136.894 37.7222C141.207 37.6928 144.989 36.5192 149.015 35.2579C153.834 33.748 158.752 32.4984 163.647 31.1963C169.154 29.7317 174.681 28.3648 180.442 27.9904Z" fill="white"/>
<path d="M227 47.2268V19.5778C226.3 18.2662 225.782 16.8593 225.251 15.42C224.496 13.3717 223.717 11.2579 222.357 9.26036L217.353 4.65004C216.903 5.30648 217.026 9.84144 217.154 14.5148C217.293 19.62 217.437 24.8905 216.842 25.45C216.229 26.0262 214.11 22.5582 211.753 18.6996C209.725 15.3804 207.52 11.7722 205.946 10.2L198.512 5.50004C199.738 8.88416 200.071 12.3011 200.407 15.745C200.74 19.1624 201.076 22.6062 202.289 26.071C203.31 28.0706 204.532 29.9292 205.759 31.7951C206.583 33.0486 207.41 34.3054 208.179 35.6105C208.62 36.3595 209.023 37.1209 209.421 37.8755C210.706 40.3072 211.953 42.668 214.351 44.3108C216.391 45.7092 220.352 46.5364 222.956 46.7656C224.3 46.884 225.649 47.0404 227 47.2268Z" fill="white"/>
<path d="M227 139.446V70.5124C226.811 70.65 226.634 70.7892 226.472 70.932C226.137 71.2272 225.801 71.5148 225.467 71.8004C224.236 72.8556 223.041 73.8796 222.053 75.1364C220.827 76.6964 220.339 78.9448 219.894 80.9964C219.735 81.7288 219.582 82.436 219.402 83.0776C218.921 84.798 218.519 86.5328 218.117 88.2672C217.666 90.2128 217.216 92.158 216.653 94.0816C216.452 94.7684 216.242 95.4604 216.03 96.1568C214.989 99.586 213.916 103.118 213.766 106.625C213.432 114.433 216.75 120.278 220.604 127.065C220.674 127.19 220.745 127.314 220.816 127.439C222.993 131.276 224.712 134.839 225.961 138.997C226.274 140.038 226.618 139.928 227 139.446Z" fill="white"/>
<path d="M227 198.606V165.729C226.473 165.052 225.956 164.369 225.45 163.681C223.777 161.406 222.288 158.942 221.178 156.41C220.14 154.046 219.303 151.831 218.491 149.682C216.687 144.912 215.007 140.468 211.538 135.448C209.935 133.128 208.167 130.68 206.142 128.639C205.072 127.559 204.08 126.437 203.089 125.316C201.729 123.776 200.371 122.239 198.813 120.818L186.529 109.614C186.25 109.36 185.962 109.058 185.664 108.747C184.988 108.04 184.259 107.278 183.461 106.88C183.255 106.777 183.036 106.673 182.813 106.567C181.926 106.144 180.957 105.684 180.295 105.08C179.957 104.771 179.662 104.898 179.417 105.27C179.25 105.526 179.858 106.215 180.209 106.612C180.3 106.715 180.374 106.798 180.412 106.85C181.703 108.576 182.683 110.435 183.668 112.302C184.129 113.178 184.592 114.054 185.087 114.92C186.641 117.634 188.933 119.854 191.228 122.078C192.357 123.172 193.487 124.266 194.531 125.421C198.748 130.086 201.131 135.681 202.922 141.39C203.347 142.746 203.894 144.074 204.44 145.402C205.102 147.011 205.763 148.619 206.208 150.273C206.753 152.299 207.165 154.356 207.577 156.412C207.866 157.857 208.155 159.302 208.491 160.735C208.955 162.718 209.523 164.678 210.092 166.639C210.719 168.801 211.346 170.963 211.832 173.154C212.012 173.967 212.145 174.792 212.278 175.619C212.493 176.954 212.708 178.291 213.124 179.578C213.747 181.509 214.837 183.296 215.996 185.013L218.938 188.688C219.625 189.952 220.728 191.036 221.808 192.098C222.143 192.427 222.476 192.754 222.794 193.084C223.607 193.929 224.255 194.891 224.902 195.851C225.547 196.81 226.192 197.768 227 198.606Z" fill="white"/>
<path d="M151.457 200H162.393C162.381 199.866 162.37 199.732 162.36 199.6C162.231 197.98 162.013 196.359 161.795 194.737C161.461 192.248 161.127 189.756 161.111 187.267C161.094 184.469 160.991 181.606 160.519 178.833C160.269 177.37 159.617 175.999 158.968 174.634C158.648 173.962 158.329 173.291 158.059 172.611C157.671 171.635 157.13 171.74 156.142 172.333C153.898 173.682 151.804 175.149 149.692 176.629C149.183 176.986 148.673 177.343 148.16 177.7C145.961 179.228 143.602 180.493 141.224 181.769C140.834 181.978 140.442 182.188 140.051 182.4C139.126 182.9 138.189 183.381 137.253 183.862C136.366 184.318 135.479 184.773 134.603 185.244C133.856 185.646 133.162 186.11 132.468 186.575C131.745 187.059 131.021 187.543 130.239 187.956C127.064 189.629 123.89 191.191 120.491 192.489C118.361 193.302 116.334 194.238 114.299 195.178C113.263 195.656 112.226 196.136 111.171 196.6C109.195 197.471 107.202 198.141 105.042 198.511C104.889 198.538 104.726 198.564 104.558 198.592C103.387 198.786 101.922 199.028 100.969 199.5C100.719 199.624 100.541 199.799 100.406 200H130.359C131.185 199.542 132.005 199.05 132.837 198.511C134.774 197.256 136.951 196.198 139.08 195.211C139.716 194.916 140.389 194.665 141.062 194.414C142.028 194.054 142.996 193.693 143.859 193.2C145.022 192.536 146.163 191.917 147.479 191.511C148.422 191.22 148.936 191.486 149.257 192.333C149.684 193.462 149.947 194.676 150.207 195.88C150.353 196.551 150.497 197.219 150.669 197.867C150.863 198.598 151.145 199.303 151.457 200Z" fill="white"/>
<path d="M1.48958 0C4.47463 2.69324 7.83467 5.29044 11.6469 6.95312C12.1963 7.19284 12.7261 7.4528 13.2532 7.71156C14.2333 8.19284 15.2049 8.66984 16.28 9.004C16.5351 9.08328 16.8103 9.16468 17.0958 9.24932C18.328 9.61408 19.7654 10.0397 20.7165 10.6197C21.4243 11.0512 22.1466 11.469 22.8771 11.8706C22.9284 11.8989 23.0737 11.9964 23.2625 12.1235C23.8441 12.5151 24.8433 13.1879 24.8175 12.9846C24.6468 11.6544 24.5124 10.465 24.733 9.10148C25.0712 7.01356 24.9005 4.89636 24.7321 2.80214C24.7103 2.53069 24.6885 2.25962 24.6676 1.98906C24.6186 1.34558 24.5396 0.678284 24.4338 0H1.48958Z" fill="white"/>
<path d="M100.407 0H130.362C128.437 1.06796 126.481 1.95583 124.287 2.84594C122.051 3.75304 119.74 4.41756 117.426 5.08304C115.869 5.53068 114.311 5.9788 112.773 6.50148C109.839 7.4986 107.267 8.07572 104.084 7.7126C103.431 7.63812 96.0246 6.54868 96.2398 5.95704C96.4073 5.49548 96.9372 5.06396 97.4552 4.64216C97.8384 4.32972 98.2156 4.0226 98.434 3.71261C99.1018 2.76462 99.7129 1.70343 100.099 0.645944C100.181 0.419416 100.274 0.196806 100.407 0Z" fill="white"/>
<path d="M151.456 0H162.393C162.475 0.947548 162.584 1.95142 162.696 2.98656C163.107 6.78288 163.564 10.9998 162.927 14.4015C162.256 14.4015 161.883 13.3686 161.597 12.5772C161.504 12.3189 161.42 12.0863 161.338 11.9237C160.856 10.9682 159.684 10.0989 158.68 9.3544C158.409 9.15332 158.15 8.96136 157.921 8.77928C157.607 8.53052 157.279 8.28344 156.947 8.03364C155.366 6.84192 153.703 5.58908 153.116 3.8015C152.812 2.87842 152.392 1.99358 151.973 1.11046C151.798 0.740896 151.623 0.371635 151.456 0Z" fill="white"/>
<path d="M189.388 51.1168C187.3 54.2544 185.21 57.3948 183.963 60.8804C183.007 63.55 182.444 66.5224 181.995 69.2916C181.557 71.9952 180.517 74.5216 179.17 76.9804C178.818 77.6236 178.491 78.3104 178.16 79.0076C177.311 80.7916 176.43 82.6436 175.009 84.0028C173.699 85.2552 172.274 86.4288 170.85 87.6028C169.698 88.552 168.546 89.5008 167.455 90.4916C166.348 91.496 165.267 92.53 164.186 93.5648C160.5 97.0912 156.803 100.628 152.031 103.047C150.337 103.906 148.502 104.404 146.661 104.904C145.952 105.096 145.243 105.289 144.54 105.503C142.638 106.081 140.857 107.021 139.181 107.992C138.722 108.257 138.213 108.457 137.704 108.658C137.111 108.891 136.517 109.125 136.004 109.461L135.965 109.492C135.487 109.86 135.124 110.147 135 110.246C135.089 110.175 135.306 110 135.687 109.692C135.789 109.61 135.894 109.533 136.004 109.461C136.466 109.106 136.932 108.756 137.395 108.409C139.529 106.81 141.628 105.236 143.229 103.136C145.186 100.569 146.558 97.1052 146.558 93.9916C146.558 91.4244 144.852 89.0132 143.351 86.8912L143.304 86.8248C141.575 84.3796 140.016 81.7448 138.89 79.036C136.942 74.3476 135.295 69.1348 134.83 64.136C134.701 62.7536 134.729 61.3488 134.756 59.9516C134.768 59.3668 134.779 58.7828 134.779 58.2028C134.779 56.724 134.96 54.8712 136.154 53.714C138.838 51.1124 143.045 50.0336 146.78 49.076C147.079 48.9992 147.376 48.9232 147.668 48.8472C147.728 48.8316 147.788 48.8156 147.849 48.8C146.996 49.4576 146.356 50.2084 146.356 51.1C146.356 52.5212 147.382 53.5916 148.403 54.6564C148.978 55.256 149.551 55.8536 149.938 56.5112C150.575 57.594 151.252 58.6564 151.929 59.7184C152.598 60.7696 153.268 61.8204 153.898 62.8888C154.307 63.584 154.893 64.1708 155.48 64.7588C155.939 65.2176 156.397 65.6772 156.773 66.1888C157.713 67.4684 157.71 68.6952 157.706 70.1412C157.706 70.2268 157.706 70.3128 157.706 70.4C157.706 71.4948 157.763 72.5836 157.82 73.6712C157.877 74.7576 157.933 75.8432 157.933 76.9332V82.3668C157.933 82.4568 157.933 82.5412 157.932 82.618C157.926 83.2588 157.924 83.422 158.4 82.6888C158.68 82.2568 158.974 81.8248 159.27 81.3904C160.348 79.8044 161.451 78.1832 162.007 76.3888C162.5 74.7944 162.476 73.1576 162.452 71.5216C162.429 69.968 162.406 68.4152 162.826 66.9C163.91 62.9948 166.563 59.716 169.179 56.4824C169.887 55.6072 170.592 54.7356 171.263 53.8556C171.992 52.9004 172.715 51.9324 173.441 50.9616C175.246 48.5476 177.064 46.1164 178.994 43.8224C179.687 42.9984 180.407 42.2168 181.172 41.4892C182.306 41.0168 183.636 40.7868 184.904 40.5676C185.239 40.5096 185.57 40.4524 185.892 40.3916C191.744 38.5272 194.583 36.5196 195.78 35.6734C196.317 35.2942 196.523 35.1482 196.523 35.3528C196.281 38.6288 194.742 42.0508 193.181 44.9916C192.066 47.0924 190.728 49.104 189.388 51.1168Z" fill="white"/>
</g>
</svg>
