<svg width="70" height="100" viewBox="0 0 70 100" fill="none" xmlns="http://www.w3.org/2000/svg">
<path d="M1.40039 64.7259C1.40039 83.5347 16.6487 99.0001 35.449 99.0001H68.6014V64.5033C68.6014 45.9463 53.558 30.9028 35.0009 30.9028C16.4481 30.9028 1.40039 46.1646 1.40039 64.7259Z" stroke="#EADDFF"/>
<path d="M68.6016 34.7742C68.6016 15.9654 53.3532 0.5 34.5529 0.5H1.40051V34.9967C1.40051 53.5538 16.444 68.5973 35.001 68.5973C53.5539 68.5973 68.6016 53.3355 68.6016 34.7742Z" stroke="#EADDFF"/>
<path d="M54.3933 49.7496C54.3933 60.1456 45.7244 68.5968 35.0014 68.5968C24.2783 68.5968 15.6094 60.1456 15.6094 49.7496C15.6094 39.3535 24.2783 30.9023 35.0014 30.9023C45.7244 30.9023 54.3933 39.3535 54.3933 49.7496Z" stroke="#EADDFF"/>
</svg>
