<svg width="70" height="100" viewBox="0 0 70 100" fill="none" xmlns="http://www.w3.org/2000/svg">
<path d="M1.40045 64.7259C1.40045 83.5347 16.6488 99.0001 35.4491 99.0001H68.6015V64.5033C68.6015 45.9463 53.558 30.9028 35.001 30.9028C16.4481 30.9028 1.40045 46.1646 1.40045 64.7259Z" stroke="#21005D"/>
<path d="M68.6014 34.7742C68.6014 15.9654 53.3531 0.5 34.5528 0.5H1.40038V34.9967C1.40038 53.5538 16.4439 68.5973 35.0009 68.5973C53.5537 68.5973 68.6014 53.3355 68.6014 34.7742Z" stroke="#21005D"/>
<path d="M54.3933 49.7496C54.3933 60.1456 45.7244 68.5968 35.0014 68.5968C24.2783 68.5968 15.6094 60.1456 15.6094 49.7496C15.6094 39.3535 24.2783 30.9023 35.0014 30.9023C45.7244 30.9023 54.3933 39.3535 54.3933 49.7496Z" stroke="#21005D"/>
</svg>
