<svg width="28" height="27" viewBox="0 0 28 27" fill="none" xmlns="http://www.w3.org/2000/svg">
<g clip-path="url(#clip0_156_555)">
<path d="M27.8571 13.5C27.8571 6.04415 21.6211 0 13.9286 0C6.23603 0 0 6.04415 0 13.5C0 20.2381 5.09345 25.8232 11.7522 26.836V17.4023H8.21568V13.5H11.7522V10.5258C11.7522 7.14234 13.8317 5.27344 17.0133 5.27344C18.5367 5.27344 20.1311 5.53711 20.1311 5.53711V8.85938H18.3748C16.6446 8.85938 16.1049 9.90009 16.1049 10.9688V13.5H19.9679L19.3504 17.4023H16.1049V26.836C22.7637 25.8232 27.8571 20.2381 27.8571 13.5Z" fill="#625B71"/>
</g>
<defs>
<clipPath id="clip0_156_555">
<rect width="27.8571" height="27" fill="white"/>
</clipPath>
</defs>
</svg>
