<svg width="211" height="200" viewBox="0 0 211 200" fill="none" xmlns="http://www.w3.org/2000/svg">
<path opacity="0.1" d="M110.772 74.1834C125.263 -8.71062 148.032 37.4297 116.464 85.7152C151.164 43.7872 157.233 48.1945 120.519 88.6664C164.251 49.2216 215.169 56.6191 133.242 90.5125C232.831 59.1933 239.887 80.9178 136.231 99.7042C227.099 93.3857 190.269 129.307 127.017 108.688C185.187 134.261 182.861 141.398 125.471 113.459C184.07 148.393 192.764 199.122 127.641 126.135C195.779 216.726 177.299 230.143 119.83 131.816C161.509 221.835 115.971 197.887 108.446 125.823C109.694 194.572 102.195 194.572 103.429 125.823C95.9048 197.874 50.3668 221.835 92.045 131.816C34.5637 230.143 16.0964 216.726 84.2344 126.135C19.1114 199.109 27.8188 148.38 86.4047 113.459C29.0014 141.398 26.6881 134.261 84.8582 108.688C21.6197 129.307 -15.224 93.3857 75.644 99.7042C-28.012 80.9178 -20.9552 59.1933 78.6331 90.5125C-3.28068 56.6191 47.6247 49.2216 91.3562 88.6664C54.6425 48.2075 60.7116 43.8002 95.4109 85.7152C63.8437 37.4297 86.6127 -8.72363 101.103 74.1834C94.5272 -24.7278 117.361 -24.7278 110.772 74.1834Z" fill="#625B71"/>
</svg>
