<svg width="185" height="187" viewBox="0 0 185 187" fill="none" xmlns="http://www.w3.org/2000/svg">
<path opacity="0.1" d="M71.4099 37.6584C92.3213 58.4565 92.5 93.5146 92.5 93.5146C92.5 93.5146 58.7748 94.8522 37.8634 74.054C16.952 53.2559 16.7733 18.1978 16.7733 18.1978C16.7733 18.1978 50.4985 16.8602 71.4099 37.6584Z" fill="#625B71"/>
<path opacity="0.1" d="M113.59 37.6584C92.6787 58.4565 92.5 93.5146 92.5 93.5146C92.5 93.5146 126.225 94.8522 147.137 74.054C168.048 53.2559 168.227 18.1978 168.227 18.1978C168.227 18.1978 134.501 16.8602 113.59 37.6584Z" fill="#625B71"/>
<path opacity="0.1" d="M71.4099 149.342C92.3213 128.543 92.5 93.4854 92.5 93.4854C92.5 93.4854 58.7748 92.1478 37.8634 112.946C16.952 133.744 16.7733 168.802 16.7733 168.802C16.7733 168.802 50.4985 170.14 71.4099 149.342Z" fill="#625B71"/>
<path opacity="0.1" d="M113.59 149.342C92.6787 128.543 92.5 93.4854 92.5 93.4854C92.5 93.4854 126.225 92.1478 147.137 112.946C168.048 133.744 168.227 168.802 168.227 168.802C168.227 168.802 134.501 170.14 113.59 149.342Z" fill="#625B71"/>
</svg>
