<svg width="29" height="27" viewBox="0 0 29 27" fill="none" xmlns="http://www.w3.org/2000/svg">
<g clip-path="url(#clip0_156_315)">
<path d="M14.6434 2.43105C18.365 2.43105 18.8057 2.44687 20.2693 2.51016C21.6295 2.56816 22.364 2.78965 22.8537 2.97422C23.5011 3.2168 23.969 3.51211 24.4533 3.98145C24.9429 4.45605 25.2422 4.9043 25.4925 5.53184C25.6829 6.00645 25.9114 6.72363 25.9713 8.03672C26.0366 9.46055 26.0529 9.8877 26.0529 13.4895C26.0529 17.0965 26.0366 17.5236 25.9713 18.9422C25.9114 20.2605 25.6829 20.9725 25.4925 21.4471C25.2422 22.0746 24.9375 22.5281 24.4533 22.9975C23.9636 23.4721 23.5011 23.7621 22.8537 24.0047C22.364 24.1893 21.624 24.4107 20.2693 24.4688C18.8002 24.532 18.3595 24.5479 14.6434 24.5479C10.9219 24.5479 10.4812 24.532 9.01758 24.4688C7.65737 24.4107 6.92285 24.1893 6.43318 24.0047C5.78571 23.7621 5.3178 23.4668 4.83357 22.9975C4.34389 22.5229 4.04464 22.0746 3.79436 21.4471C3.60393 20.9725 3.37542 20.2553 3.31557 18.9422C3.25028 17.5184 3.23396 17.0912 3.23396 13.4895C3.23396 9.88242 3.25028 9.45527 3.31557 8.03672C3.37542 6.71836 3.60393 6.00645 3.79436 5.53184C4.04464 4.9043 4.34933 4.45078 4.83357 3.98145C5.32324 3.50684 5.78571 3.2168 6.43318 2.97422C6.92285 2.78965 7.66281 2.56816 9.01758 2.51016C10.4812 2.44687 10.9219 2.43105 14.6434 2.43105ZM14.6434 0C10.862 0 10.3887 0.0158203 8.90332 0.0791016C7.42341 0.142383 6.40597 0.374414 5.52455 0.706641C4.60505 1.05469 3.82701 1.51348 3.05441 2.26758C2.27637 3.01641 1.80301 3.77051 1.44392 4.65645C1.10114 5.51602 0.861747 6.49687 0.796456 7.93125C0.731166 9.37617 0.714844 9.83496 0.714844 13.5C0.714844 17.165 0.731166 17.6238 0.796456 19.0635C0.861747 20.4979 1.10114 21.484 1.44392 22.3383C1.80301 23.2295 2.27637 23.9836 3.05441 24.7324C3.82701 25.4813 4.60505 25.9453 5.51911 26.2881C6.40597 26.6203 7.41797 26.8523 8.89788 26.9156C10.3832 26.9789 10.8566 26.9947 14.638 26.9947C18.4194 26.9947 18.8927 26.9789 20.3781 26.9156C21.858 26.8523 22.8754 26.6203 23.7568 26.2881C24.6709 25.9453 25.4489 25.4813 26.2215 24.7324C26.9941 23.9836 27.4729 23.2295 27.8266 22.3436C28.1694 21.484 28.4088 20.5031 28.4741 19.0688C28.5393 17.6291 28.5557 17.1703 28.5557 13.5053C28.5557 9.84023 28.5393 9.38145 28.4741 7.9418C28.4088 6.50742 28.1694 5.52129 27.8266 4.66699C27.4838 3.77051 27.0105 3.01641 26.2324 2.26758C25.4598 1.51875 24.6818 1.05469 23.7677 0.711914C22.8809 0.379687 21.8689 0.147656 20.389 0.084375C18.8982 0.0158203 18.4248 0 14.6434 0Z" fill="white"/>
<path d="M14.6435 6.56543C10.6934 6.56543 7.48877 9.67148 7.48877 13.5C7.48877 17.3285 10.6934 20.4346 14.6435 20.4346C18.5935 20.4346 21.7982 17.3285 21.7982 13.5C21.7982 9.67148 18.5935 6.56543 14.6435 6.56543ZM14.6435 17.9982C12.0808 17.9982 10.0024 15.9838 10.0024 13.5C10.0024 11.0162 12.0808 9.00176 14.6435 9.00176C17.2061 9.00176 19.2845 11.0162 19.2845 13.5C19.2845 15.9838 17.2061 17.9982 14.6435 17.9982Z" fill="white"/>
<path d="M23.7513 6.29119C23.7513 7.18767 23.0005 7.91014 22.081 7.91014C21.156 7.91014 20.4106 7.1824 20.4106 6.29119C20.4106 5.3947 21.1615 4.67224 22.081 4.67224C23.0005 4.67224 23.7513 5.39998 23.7513 6.29119Z" fill="white"/>
</g>
<defs>
<clipPath id="clip0_156_315">
<rect width="27.8571" height="27" fill="white" transform="translate(0.714844)"/>
</clipPath>
</defs>
</svg>
