<svg width="72" height="86" viewBox="0 0 72 86" fill="none" xmlns="http://www.w3.org/2000/svg">
<g clip-path="url(#clip0_156_536)">
<path d="M14.8215 50.8029C14.6542 50.2893 14.561 49.7548 14.5447 49.2152C14.5447 48.7658 14.5447 48.2583 14.6175 47.6928C14.6904 47.1274 14.7632 46.3517 14.9234 45.3585C15.0937 44.3536 15.4051 43.3774 15.8485 42.4587C16.3015 41.4917 16.8249 40.5589 17.4145 39.6677C18.0476 38.7295 18.8214 37.8934 19.7089 37.1884C20.6691 36.4202 21.7094 35.7567 22.8118 35.2093C25.5636 33.9163 28.5832 33.2879 31.6251 33.3752C38.5932 33.3752 44.2746 35.7675 48.6691 40.5521C53.0637 45.3368 55.2609 51.4408 55.2609 58.8642C55.2609 66.307 52.6655 72.4907 47.4746 77.4155C42.2837 82.3403 35.7016 84.8075 27.7283 84.8172C19.7599 84.8172 13.1462 82.3669 7.88731 77.4662C2.62843 72.5656 -0.000994646 66.2031 -0.000994646 58.3785C-0.0917224 53.6771 1.08808 49.0377 3.41509 44.9453C5.71301 41.0085 9.10488 37.8164 13.1826 35.753L13.5905 36.391C10.5446 38.5276 8.29369 41.6064 7.18808 45.1483C5.87566 49.0675 5.21866 53.1745 5.2433 57.3056C5.2433 65.2751 7.3386 71.4951 11.5292 75.9656C15.7198 80.4361 21.0928 82.6737 27.6482 82.6786C34.2036 82.6786 39.5668 80.4288 43.738 75.9294C47.9092 71.4299 49.9923 65.5047 49.9875 58.1537C49.9875 51.7984 48.3365 46.4266 45.0345 42.0383C41.7325 37.6499 37.0758 35.4582 31.0643 35.463C28.5574 35.4328 26.0732 35.9397 23.7805 36.9492C21.9104 37.7169 20.2356 38.8895 18.8775 40.3817C17.5193 41.8738 16.512 43.6482 15.9286 45.576C15.5982 46.5564 15.4141 47.5799 15.3823 48.6135C15.3695 49.3001 15.4158 49.9864 15.5207 50.6651L14.8215 50.8029Z" fill="#625B71"/>
<path d="M8.29809 9.04774L7.20269 10.2018C7.14468 10.263 7.14742 10.3593 7.20883 10.417L8.40546 11.5421C8.46687 11.5998 8.56369 11.5971 8.6217 11.536L9.7171 10.3819C9.77511 10.3208 9.77234 10.2244 9.71093 10.1667L8.51429 9.0416C8.45288 8.98386 8.3561 8.98662 8.29809 9.04774Z" fill="#625B71"/>
<path d="M20.2297 0.0203929L19.1343 1.17449C19.0763 1.23561 19.0791 1.33197 19.1405 1.38971L20.3371 2.51477C20.3985 2.5725 20.4953 2.56978 20.5533 2.50866L21.6487 1.35456C21.7067 1.29344 21.704 1.19708 21.6426 1.13934L20.446 0.0142842C20.3846 -0.0434533 20.2877 -0.0407268 20.2297 0.0203929Z" fill="#625B71"/>
<path d="M31.3821 9.05164L30.2867 10.2057C30.2287 10.2669 30.2314 10.3632 30.2928 10.4209L31.4894 11.546C31.5509 11.6038 31.6477 11.601 31.7057 11.5399L32.8011 10.3858C32.8591 10.3247 32.8563 10.2283 32.7949 10.1706L31.5983 9.0455C31.5369 8.98777 31.4401 8.99052 31.3821 9.05164Z" fill="#625B71"/>
<path d="M72.0157 84.7589V85.4114C70.3837 85.7995 68.7116 85.9966 67.0336 85.9986C59.8664 85.9986 52.9177 82.4319 46.1875 75.2984L24.4746 52.267L39.9672 32.9545C40.2688 32.6323 40.4535 32.2189 40.4916 31.7801C40.4988 31.4645 40.4315 31.1516 40.2949 30.8667C40.1076 30.5376 39.8281 30.2699 39.4905 30.0962C39.153 29.9224 38.772 29.8501 38.3939 29.888H37.7383V29.3008H51.5775V29.888H51.3153C49.9811 29.8486 48.6546 30.103 47.4308 30.6331C46.2069 31.1633 45.1158 31.9559 44.2354 32.9545L28.9395 50.5054L51.2279 74.1893C54.0454 77.2233 57.3332 79.7883 60.9662 81.7867C64.3318 83.7055 68.1372 84.7292 72.0157 84.7589Z" fill="#625B71"/>
<path d="M22.3464 52.1049L20.2031 50.1406L18.2295 52.2738L20.3728 54.238L22.3464 52.1049Z" fill="#625B71"/>
<path d="M22.6159 28.6246L20.5155 26.6996C20.2729 26.4772 19.895 26.4927 19.6716 26.7342L17.7375 28.8246C17.514 29.0662 17.5296 29.4422 17.7723 29.6646L19.8727 31.5896C20.1153 31.812 20.4932 31.7965 20.7166 31.555L22.6507 29.4645C22.8742 29.223 22.8586 28.8469 22.6159 28.6246Z" fill="#625B71"/>
<path d="M16.7176 16.1245C12.0123 20.5974 6.41107 18.5023 4.72124 17.4729C4.65954 17.4344 4.60867 17.381 4.5734 17.3176C4.53814 17.2542 4.51965 17.1829 4.51965 17.1104C4.51965 17.038 4.53814 16.9667 4.5734 16.9033C4.60867 16.8399 4.65954 16.7864 4.72124 16.748C17.6354 8.7011 20.1191 21.0977 20.0171 23.5335V49.9721C20.0155 50.0869 19.9684 50.1963 19.886 50.2766L18.2326 51.9222C18.1535 52.0011 18.109 52.108 18.109 52.2195C18.109 52.3309 18.1535 52.4378 18.2326 52.5167L19.8933 54.2275C19.9726 54.3064 20.0171 54.4133 20.0171 54.5248V76.8458H20.5489V65.7541V62.7964V54.532C20.5489 54.4205 20.5935 54.3136 20.6727 54.2348L22.4135 52.5239C22.4545 52.4859 22.4873 52.4399 22.5096 52.3888C22.532 52.3377 22.5436 52.2825 22.5436 52.2267C22.5436 52.1709 22.532 52.1157 22.5096 52.0646C22.4873 52.0135 22.4545 51.9675 22.4135 51.9295L20.6873 50.2838C20.6451 50.2451 20.6117 50.198 20.5891 50.1455C20.5665 50.0931 20.5553 50.0365 20.5562 49.9794V23.5407C20.4178 21.1121 23.0254 8.70836 36.5367 16.7552C36.6021 16.7908 36.6566 16.8433 36.6946 16.907C36.7325 16.9708 36.7526 17.0436 36.7526 17.1177C36.7526 17.1918 36.7325 17.2646 36.6946 17.3284C36.6566 17.3922 36.6021 17.4446 36.5367 17.4802C34.7741 18.5096 28.9616 20.5974 24.0305 16.1245" stroke="#625B71" stroke-width="2" stroke-miterlimit="10"/>
<path d="M16.8926 15.8545C16.8926 15.8545 23.2368 6.26346 11.794 1.35559C11.794 1.35559 8.67651 9.09798 17.7594 12.9547" fill="#625B71"/>
<path d="M16.8926 15.8545C16.8926 15.8545 23.2368 6.26346 11.794 1.35559C11.794 1.35559 8.67651 9.09798 17.7594 12.9547" stroke="#625B71" stroke-width="2" stroke-miterlimit="10"/>
<path d="M23.6011 15.8779C23.6011 15.8779 16.6597 6.27964 29.1513 1.37903C29.1513 1.37903 32.5601 9.12142 22.596 12.9781" fill="#625B71"/>
<path d="M23.6011 15.8779C23.6011 15.8779 16.6597 6.27964 29.1513 1.37903C29.1513 1.37903 32.5601 9.12142 22.596 12.9781" stroke="#625B71" stroke-width="2" stroke-miterlimit="10"/>
<path d="M5.21716 17.3259C5.21716 17.3259 10.8839 12.0048 16.2229 15.876C16.2229 15.876 13.0836 20.3416 5.21716 17.3259Z" fill="#625B71" stroke="#625B71" stroke-width="2" stroke-miterlimit="10"/>
<path d="M36.0996 17.4484C36.0996 17.4484 30.4911 11.9026 25.174 15.9333C25.1958 15.9478 28.3133 20.5874 36.0996 17.4484Z" fill="#625B71" stroke="#625B71" stroke-width="2" stroke-miterlimit="10"/>
<path d="M19.5718 58.7189H16.6583V61.6186H19.5718V58.7189Z" fill="#625B71"/>
<path d="M19.5731 64.1087H18.0581V64.8481H15.9603L15.9676 63.7462H13.0177V69.3065H16.0987H17.9998H18.3494H19.5731V64.1087Z" fill="#625B71" stroke="#625B71" stroke-miterlimit="10"/>
<path d="M19.5718 72.4218H16.8695V73.5962H15.2015V76.0682L17.0006 76.061V76.6337H19.5718V72.4218Z" fill="#625B71" stroke="#625B71" stroke-miterlimit="10"/>
</g>
<defs>
<clipPath id="clip0_156_536">
<rect width="72" height="86" fill="white"/>
</clipPath>
</defs>
</svg>
