<svg width="86" height="85" viewBox="0 0 86 85" fill="none" xmlns="http://www.w3.org/2000/svg">
<path d="M43.2051 42.2129C43.2691 36.8399 44.3642 31.5267 46.4332 26.5594C48.5664 21.438 51.6932 16.7844 55.6351 12.8644C59.577 8.94435 64.2569 5.83466 69.4076 3.71301C74.4044 1.6548 79.7492 0.565556 85.1543 0.502251L85.1543 42.2129L43.2051 42.2129Z" stroke="#21005D"/>
<path d="M85.1513 42.7864C85.0873 48.1595 83.9922 53.4726 81.9232 58.44C79.79 63.5613 76.6632 68.2149 72.7213 72.1349C68.7794 76.055 64.0995 79.1647 58.9488 81.2863C53.952 83.3445 48.6072 84.4338 43.2021 84.4971L43.2021 42.7864L85.1513 42.7864Z" stroke="#21005D"/>
<path d="M42.6289 42.2129C42.5649 36.8399 41.4698 31.5267 39.4008 26.5594C37.2676 21.438 34.1408 16.7844 30.1989 12.8644C26.257 8.94435 21.5771 5.83466 16.4263 3.71301C11.4296 1.6548 6.08481 0.565556 0.679688 0.502251L0.679689 42.2129H42.6289Z" stroke="#21005D"/>
<path d="M0.682665 42.7864C0.746666 48.1595 1.84175 53.4726 3.91079 58.44C6.04399 63.5613 9.17074 68.2149 13.1127 72.1349C17.0546 76.055 21.7345 79.1647 26.8852 81.2863C31.8819 83.3445 37.2268 84.4338 42.6319 84.4971L42.6319 42.7864H0.682665Z" stroke="#21005D"/>
</svg>
