<svg width="24" height="24" viewBox="0 0 24 24" fill="none" xmlns="http://www.w3.org/2000/svg">
<path fill-rule="evenodd" clip-rule="evenodd" d="M18.3571 16.0417L24 21.6726L22.8371 22.8363L21.6741 24L16.0312 18.369C14.361 19.5718 12.3473 20.3059 10.1463 20.3059C4.54244 20.3059 0 15.7605 0 10.1529C0 4.5454 4.54244 0 10.1463 0C15.7502 0 20.2927 4.5454 20.2927 10.1529C20.2927 12.3554 19.559 14.3703 18.3571 16.0417ZM10.1463 3.12398C6.25951 3.12398 3.12195 6.26359 3.12195 10.1529C3.12195 14.0423 6.25951 17.1819 10.1463 17.1819C14.0332 17.1819 17.1707 14.0423 17.1707 10.1529C17.1707 6.26359 14.0332 3.12398 10.1463 3.12398Z" fill="#EADDFF"/>
</svg>
