<svg width="29" height="27" viewBox="0 0 29 27" fill="none" xmlns="http://www.w3.org/2000/svg">
<g clip-path="url(#clip0_156_319)">
<path d="M28.0074 8.10002C28.0074 8.10002 27.7354 6.2385 26.8975 5.42112C25.8365 4.34534 24.6504 4.34006 24.1063 4.27678C20.2107 4.00256 14.3617 4.00256 14.3617 4.00256H14.3509C14.3509 4.00256 8.50195 4.00256 4.60631 4.27678C4.06222 4.34006 2.87612 4.34534 1.81515 5.42112C0.97726 6.2385 0.710658 8.10002 0.710658 8.10002C0.710658 8.10002 0.427734 10.2885 0.427734 12.4717V14.5178C0.427734 16.701 0.705218 18.8895 0.705218 18.8895C0.705218 18.8895 0.97726 20.751 1.80971 21.5684C2.87068 22.6442 4.26353 22.6073 4.88379 22.7233C7.11454 22.9289 14.3563 22.9922 14.3563 22.9922C14.3563 22.9922 20.2107 22.9817 24.1063 22.7127C24.6504 22.6494 25.8365 22.6442 26.8975 21.5684C27.7354 20.751 28.0074 18.8895 28.0074 18.8895C28.0074 18.8895 28.2849 16.7063 28.2849 14.5178V12.4717C28.2849 10.2885 28.0074 8.10002 28.0074 8.10002ZM11.4781 17.0016V9.41311L19.0028 13.2205L11.4781 17.0016Z" fill="white"/>
</g>
<defs>
<clipPath id="clip0_156_319">
<rect width="27.8571" height="27" fill="white" transform="translate(0.427734)"/>
</clipPath>
</defs>
</svg>
